<?xml version="1.0" encoding="UTF-8" standalone="no"?>
<svg
   id="Layer_1"
   data-name="Layer 1"
   viewBox="0 0 64 64"
   version="1.1"
   sodipodi:docname="lqExtractPointSelection.svg"
   inkscape:version="1.3 (1:1.3+202307231459+0e150ed6c4)"
   xmlns:inkscape="http://www.inkscape.org/namespaces/inkscape"
   xmlns:sodipodi="http://sodipodi.sourceforge.net/DTD/sodipodi-0.dtd"
   xmlns="http://www.w3.org/2000/svg"
   xmlns:svg="http://www.w3.org/2000/svg">
  <defs
     id="defs13" />
  <sodipodi:namedview
     id="namedview13"
     pagecolor="#505050"
     bordercolor="#eeeeee"
     borderopacity="1"
     inkscape:showpageshadow="0"
     inkscape:pageopacity="0"
     inkscape:pagecheckerboard="0"
     inkscape:deskcolor="#d1d1d1"
     inkscape:zoom="17.699767"
     inkscape:cx="39.718037"
     inkscape:cy="24.294105"
     inkscape:window-width="1850"
     inkscape:window-height="1136"
     inkscape:window-x="0"
     inkscape:window-y="0"
     inkscape:window-maximized="1"
     inkscape:current-layer="Layer_1" />
  <title
     id="title1">SVG_Artboards</title>
  <path
     d="M28.2,47.12H6.81A1.13,1.13,0,0,1,5.68,46V7A1.13,1.13,0,0,1,6.81,5.9h39A1.13,1.13,0,0,1,46.91,7V28.41a1.14,1.14,0,0,1-1.13,1.13H29.32V46A1.12,1.12,0,0,1,28.2,47.12ZM7.94,44.87H27.07V28.41a1.14,1.14,0,0,1,1.13-1.13H44.65V8.15H7.94Z"
     style="fill:#787878"
     id="path1" />
  <path
     d="M55.1,56.23H51.5V54.87h2.93V51.94h1.35v3.61A.68.68,0,0,1,55.1,56.23Z"
     style="fill:#787878"
     id="path2" />
  <path
     d="M55.1,56.51H51.21V54.59h2.93V51.66h1.92v3.89A1,1,0,0,1,55.1,56.51ZM51.78,56H55.1a.4.4,0,0,0,.4-.4V52.22h-.79v2.93H51.78Z"
     style="fill:#787878"
     id="path3" />
  <rect
     x="43.16"
     y="54.87"
     width="4.17"
     height="1.35"
     style="fill:#787878"
     id="rect3" />
  <path
     d="M47.61,56.51H42.88V54.59h4.73ZM43.45,56h3.6v-.8h-3.6Z"
     style="fill:#787878"
     id="path4" />
  <path
     d="M39,56.23H35.39a.69.69,0,0,1-.68-.68V51.94h1.36v2.93H39Z"
     style="fill:#787878"
     id="path5" />
  <path
     d="M39.28,56.51H35.39a1,1,0,0,1-1-1V51.66h1.92v2.93h2.93ZM35,52.22v3.33a.4.4,0,0,0,.4.4h3.33v-.8H35.79V52.22Z"
     style="fill:#787878"
     id="path6" />
  <rect
     x="34.71"
     y="43.61"
     width="1.35"
     height="4.17"
     style="fill:#787878"
     id="rect6" />
  <path
     d="M36.35,48.06H34.43V43.33h1.92ZM35,47.49h.8v-3.6H35Z"
     style="fill:#787878"
     id="path7" />
  <path
     d="M36.07,39.44H34.71v-3.6a.68.68,0,0,1,.68-.68H39v1.35H36.07Z"
     style="fill:#787878"
     id="path8" />
  <path
     d="M36.35,39.72H34.43V35.84a1,1,0,0,1,1-1h3.89v1.91H36.35ZM35,39.16h.8V36.23h2.93v-.79H35.39a.4.4,0,0,0-.4.4Z"
     style="fill:#787878"
     id="path9" />
  <rect
     x="43.16"
     y="35.16"
     width="4.17"
     height="1.35"
     style="fill:#787878"
     id="rect9" />
  <path
     d="M47.61,36.79H42.88V34.88h4.73Zm-4.16-.56h3.6v-.79h-3.6Z"
     style="fill:#787878"
     id="path10" />
  <path
     d="M55.78,39.44H54.43V36.51H51.5V35.16h3.6a.67.67,0,0,1,.68.68Z"
     style="fill:#787878"
     id="path11" />
  <path
     d="M56.06,39.72H54.14V36.79H51.21V34.88H55.1a1,1,0,0,1,1,1Zm-1.35-.56h.79V35.84a.4.4,0,0,0-.4-.4H51.78v.79h2.93Z"
     style="fill:#787878"
     id="path12" />
  <rect
     x="54.43"
     y="43.61"
     width="1.35"
     height="4.17"
     style="fill:#787878"
     id="rect12" />
  <path
     d="M56.06,48.06H54.14V43.33h1.92Zm-1.35-.57h.79v-3.6h-.79Z"
     style="fill:#787878"
     id="path13" />
  <circle
     cx="13.436172"
     cy="20.547766"
     style="fill:#d0e5f6;fill-opacity:1;stroke-width:0.772928"
     id="circle4-6-6"
     r="2.9834976" />
  <path
     d="m 13.43618,24.396952 a 3.8646345,3.8646345 0 1 1 3.864635,-3.864635 3.8646345,3.8646345 0 0 1 -3.864635,3.864635 z m 0,-5.959266 a 2.1100906,2.1100906 0 1 0 2.110092,2.110091 2.1100906,2.1100906 0 0 0 -2.110092,-2.110091 z"
     style="fill:#6f6f59;stroke-width:0.772928"
     id="path4-3-7-0" />
  <circle
     cx="18.150391"
     cy="30.922644"
     style="fill:#d0e5f6;fill-opacity:1;stroke-width:0.772928"
     id="circle4-6-6-9"
     r="2.9834976" />
  <path
     d="m 18.150399,34.771832 a 3.8646345,3.8646345 0 1 1 3.864635,-3.864635 3.8646345,3.8646345 0 0 1 -3.864635,3.864635 z m 0,-5.959266 a 2.1100906,2.1100906 0 1 0 2.110092,2.110091 2.1100906,2.1100906 0 0 0 -2.110092,-2.110091 z"
     style="fill:#6f6f59;stroke-width:0.772928"
     id="path4-3-7-0-1" />
  <circle
     cx="21.792555"
     cy="39.743725"
     style="fill:#d0e5f6;fill-opacity:1;stroke-width:0.772928"
     id="circle4-6-6-2"
     r="2.9834976" />
  <path
     d="m 21.792564,43.592914 a 3.8646345,3.8646345 0 1 1 3.864635,-3.864635 3.8646345,3.8646345 0 0 1 -3.864635,3.864635 z m 0,-5.959266 a 2.1100906,2.1100906 0 1 0 2.110092,2.110091 2.1100906,2.1100906 0 0 0 -2.110092,-2.110091 z"
     style="fill:#6f6f59;stroke-width:0.772928"
     id="path4-3-7-0-7" />
  <circle
     cx="11.896812"
     cy="38.912807"
     style="fill:#d0e5f6;fill-opacity:1;stroke-width:0.772928"
     id="circle4-6-6-0"
     r="2.9834976" />
  <path
     d="m 11.896821,42.761994 a 3.8646345,3.8646345 0 1 1 3.864635,-3.864635 3.8646345,3.8646345 0 0 1 -3.864635,3.864635 z m 0,-5.959266 a 2.1100906,2.1100906 0 1 0 2.110092,2.110091 2.1100906,2.1100906 0 0 0 -2.110092,-2.110091 z"
     style="fill:#6f6f59;stroke-width:0.772928"
     id="path4-3-7-0-9" />
  <circle
     cx="40.138481"
     cy="22.982073"
     style="fill:#d0e5f6;fill-opacity:1;stroke-width:0.772928"
     id="circle4-6-6-36"
     r="2.9834976" />
  <path
     d="m 40.138486,26.831261 a 3.8646345,3.8646345 0 1 1 3.864635,-3.864635 3.8646345,3.8646345 0 0 1 -3.864635,3.864635 z m 0,-5.959266 a 2.1100906,2.1100906 0 1 0 2.110092,2.110091 2.1100906,2.1100906 0 0 0 -2.110092,-2.110091 z"
     style="fill:#6f6f59;stroke-width:0.772928"
     id="path4-3-7-0-0" />
  <circle
     cx="21.625521"
     cy="13.022488"
     style="fill:#d0e5f6;fill-opacity:1;stroke-width:0.772928"
     id="circle4-6-6-3"
     r="2.9834976" />
  <path
     d="m 21.625528,16.871675 a 3.8646345,3.8646345 0 1 1 3.864635,-3.864635 3.8646345,3.8646345 0 0 1 -3.864635,3.864635 z m 0,-5.959266 A 2.1100906,2.1100906 0 1 0 23.73562,13.0225 2.1100906,2.1100906 0 0 0 21.625528,10.912409 Z"
     style="fill:#6f6f59;stroke-width:0.772928"
     id="path4-3-7-0-6" />
  <circle
     cx="33.127987"
     cy="15.217935"
     style="fill:#d0e5f6;fill-opacity:1;stroke-width:0.772928"
     id="circle4-6-6-7"
     r="2.9834976" />
  <path
     d="m 33.127993,19.067122 a 3.8646345,3.8646345 0 1 1 3.864635,-3.864635 3.8646345,3.8646345 0 0 1 -3.864635,3.864635 z m 0,-5.959266 a 2.1100906,2.1100906 0 1 0 2.110092,2.110091 2.1100906,2.1100906 0 0 0 -2.110092,-2.110091 z"
     style="fill:#6f6f59;stroke-width:0.772928"
     id="path4-3-7-0-5" />
  <circle
     cx="46.257114"
     cy="41.486614"
     style="fill:#a7d28c;fill-opacity:1;stroke-width:0.772928"
     id="circle4-6-6-6"
     r="2.9834976" />
  <path
     d="m 46.257119,45.335801 a 3.8646345,3.8646345 0 1 1 3.864635,-3.864635 3.8646345,3.8646345 0 0 1 -3.864635,3.864635 z m 0,-5.959266 a 2.1100906,2.1100906 0 1 0 2.110092,2.110091 2.1100906,2.1100906 0 0 0 -2.110092,-2.110091 z"
     style="fill:#6f6f59;stroke-width:0.772928"
     id="path4-3-7-0-2" />
  <circle
     cx="49.736565"
     cy="49.48447"
     style="fill:#a7d28c;fill-opacity:1;stroke-width:0.772928"
     id="circle4-6-6-6-7"
     r="2.9834976" />
  <path
     d="m 49.736569,53.33366 a 3.8646345,3.8646345 0 1 1 3.864635,-3.864635 3.8646345,3.8646345 0 0 1 -3.864635,3.864635 z m 0,-5.959266 a 2.1100906,2.1100906 0 1 0 2.110092,2.110091 2.1100906,2.1100906 0 0 0 -2.110092,-2.110091 z"
     style="fill:#6f6f59;stroke-width:0.772928"
     id="path4-3-7-0-2-5" />
  <circle
     cx="40.712597"
     cy="49.638077"
     style="fill:#a7d28c;fill-opacity:1;stroke-width:0.772928"
     id="circle4-6-6-6-2"
     r="2.9834976" />
  <path
     d="m 40.712602,53.487263 a 3.8646345,3.8646345 0 1 1 3.864635,-3.864635 3.8646345,3.8646345 0 0 1 -3.864635,3.864635 z m 0,-5.959266 a 2.1100906,2.1100906 0 1 0 2.110092,2.110091 2.1100906,2.1100906 0 0 0 -2.110092,-2.110091 z"
     style="fill:#6f6f59;stroke-width:0.772928"
     id="path4-3-7-0-2-3" />
  <circle
     cx="25.840126"
     cy="22.345974"
     style="fill:#d0e5f6;fill-opacity:1;stroke-width:0.772928"
     id="circle4-6-6-35"
     r="2.9834976" />
  <path
     d="m 25.840133,26.19516 a 3.8646345,3.8646345 0 1 1 3.864635,-3.864635 3.8646345,3.8646345 0 0 1 -3.864635,3.864635 z m 0,-5.959266 a 2.1100906,2.1100906 0 1 0 2.110092,2.110091 2.1100906,2.1100906 0 0 0 -2.110092,-2.110091 z"
     style="fill:#6f6f59;stroke-width:0.772928"
     id="path4-3-7-0-62" />
</svg>
