<?xml version="1.0" encoding="UTF-8" standalone="no"?>
<svg
   id="Layer_1"
   data-name="Layer 1"
   viewBox="0 0 64 64"
   version="1.1"
   sodipodi:docname="lqEnabledAdvancedArrays.svg"
   inkscape:version="1.3 (1:1.3+202307231459+0e150ed6c4)"
   xmlns:inkscape="http://www.inkscape.org/namespaces/inkscape"
   xmlns:sodipodi="http://sodipodi.sourceforge.net/DTD/sodipodi-0.dtd"
   xmlns="http://www.w3.org/2000/svg"
   xmlns:svg="http://www.w3.org/2000/svg">
  <defs
     id="defs12" />
  <sodipodi:namedview
     id="namedview12"
     pagecolor="#505050"
     bordercolor="#eeeeee"
     borderopacity="1"
     inkscape:showpageshadow="0"
     inkscape:pageopacity="0"
     inkscape:pagecheckerboard="0"
     inkscape:deskcolor="#d1d1d1"
     inkscape:zoom="14.625"
     inkscape:cx="39.316239"
     inkscape:cy="32.683761"
     inkscape:window-width="1850"
     inkscape:window-height="1136"
     inkscape:window-x="0"
     inkscape:window-y="0"
     inkscape:window-maximized="1"
     inkscape:current-layer="Layer_1" />
  <title
     id="title1">SVG_Artboards</title>
  <g
     id="g14"
     transform="translate(-1.1906973,-1.1810145)">
    <rect
       x="20.270002"
       y="9.475564"
       width="36.946285"
       height="47.389912"
       style="fill:#d1d8ed;stroke-width:1.04961"
       id="rect1" />
    <path
       d="M 57.226784,58.051533 H 20.270001 A 1.1860598,1.1860598 0 0 1 19.083942,56.87597 V 9.4755637 A 1.1860598,1.1860598 0 0 1 20.270001,8.3 h 36.956783 a 1.1755637,1.1755637 0 0 1 1.154571,1.1755637 V 56.87597 a 1.1755637,1.1755637 0 0 1 -1.154571,1.175563 z M 21.456061,55.68991 H 56.093205 V 10.661623 H 21.456061 Z"
       style="fill:#787878;stroke-width:1.04961"
       id="path1" />
    <rect
       x="9.1546278"
       y="9.475564"
       width="14.033291"
       height="47.389912"
       style="fill:#d1d8ed;stroke-width:1.04961"
       id="rect2" />
    <path
       d="M 23.198414,58.051533 H 9.1546272 A 1.1755637,1.1755637 0 0 1 8.0000557,56.87597 V 9.4755637 A 1.1755637,1.1755637 0 0 1 9.1546272,8.3 H 23.198414 a 1.1755637,1.1755637 0 0 1 1.175564,1.1755637 V 56.87597 a 1.1755637,1.1755637 0 0 1 -1.175564,1.175563 z M 10.340687,55.68991 H 22.012355 V 10.661623 H 10.340687 Z"
       style="fill:#787878;stroke-width:1.04961"
       id="path2" />
    <rect
       x="9.1546278"
       y="9.475564"
       width="48.040668"
       height="9.4989748"
       style="fill:#cdcece;stroke-width:1.04961"
       id="rect3" />
    <path
       d="M 57.205792,20.160598 H 9.1546272 A 1.1860598,1.1860598 0 0 1 8.0000557,18.974538 V 9.5280442 A 1.1755637,1.1755637 0 0 1 9.1546272,8.3 H 57.205792 a 1.1755637,1.1755637 0 0 1 1.175563,1.1755637 v 9.4464933 a 1.1860598,1.1860598 0 0 1 -1.175563,1.238541 z M 10.340687,17.788478 H 56.019732 V 10.661623 H 10.340687 Z"
       style="fill:#787878;stroke-width:1.04961"
       id="path3" />
    <rect
       x="9.1546278"
       y="18.985033"
       width="48.040668"
       height="9.4989748"
       style="fill:#ffffff;stroke-width:1.04961"
       id="rect4" />
    <path
       d="M 57.205792,29.659572 H 9.1546272 A 1.1755637,1.1755637 0 0 1 8.0000557,28.484008 v -9.446494 a 1.1860598,1.1860598 0 0 1 1.1545715,-1.23854 H 57.205792 a 1.1860598,1.1860598 0 0 1 1.175563,1.18606 v 9.498974 a 1.1755637,1.1755637 0 0 1 -1.175563,1.175564 z M 10.340687,27.297948 H 56.019732 V 20.171094 H 10.340687 Z"
       style="fill:#787878;stroke-width:1.04961"
       id="path4" />
    <rect
       x="9.1546278"
       y="28.431526"
       width="48.040668"
       height="9.4989748"
       style="fill:#ffffff;stroke-width:1.04961"
       id="rect5" />
    <path
       d="M 57.205792,39.116562 H 9.1546272 A 1.1860598,1.1860598 0 0 1 8.0000557,37.930502 V 28.484008 A 1.1755637,1.1755637 0 0 1 9.1546272,27.255964 H 57.205792 a 1.1755637,1.1755637 0 0 1 1.175563,1.175564 v 9.498974 a 1.1860598,1.1860598 0 0 1 -1.175563,1.18606 z M 10.340687,36.744442 H 56.019732 V 29.617587 H 10.340687 Z"
       style="fill:#787878;stroke-width:1.04961"
       id="path5" />
    <rect
       x="9.1546278"
       y="37.888519"
       width="48.040668"
       height="9.4989748"
       style="fill:#ffffff;stroke-width:1.04961"
       id="rect6" />
    <path
       d="M 57.205792,48.563055 H 9.1546272 A 1.1860598,1.1860598 0 0 1 8.0000557,47.376995 V 37.930502 A 1.1755637,1.1755637 0 0 1 9.1546272,36.702458 H 57.205792 a 1.1755637,1.1755637 0 0 1 1.175563,1.186059 v 9.446494 a 1.1860598,1.1860598 0 0 1 -1.175563,1.228044 z M 10.340687,46.190936 H 56.019732 V 39.064081 H 10.340687 Z"
       style="fill:#787878;stroke-width:1.04961"
       id="path6" />
    <rect
       x="9.1546278"
       y="47.387493"
       width="48.040668"
       height="9.4989748"
       style="fill:#ffffff;stroke-width:1.04961"
       id="rect7" />
    <path
       d="M 57.205792,58.062029 H 9.1546272 A 1.1755637,1.1755637 0 0 1 8.0000557,56.886466 v -9.498974 a 1.1860598,1.1860598 0 0 1 1.1545715,-1.18606 H 57.205792 a 1.1860598,1.1860598 0 0 1 1.175563,1.18606 v 9.498974 a 1.1755637,1.1755637 0 0 1 -1.175563,1.175563 z M 10.340687,55.700406 H 56.019732 V 48.573551 H 10.340687 Z"
       style="fill:#787878;stroke-width:1.04961"
       id="path7" />
    <rect
       x="9.1546278"
       y="9.475564"
       width="13.938826"
       height="9.4989748"
       style="fill:#cdcece;stroke-width:1.04961"
       id="rect8" />
    <path
       d="M 23.093453,20.160598 H 9.1546272 A 1.1860598,1.1860598 0 0 1 8.0000557,18.974538 V 9.5280442 A 1.1755637,1.1755637 0 0 1 9.1546272,8.3 H 23.093453 a 1.1860598,1.1860598 0 0 1 1.18606,1.1755637 v 9.4464933 a 1.1965559,1.1965559 0 0 1 -1.18606,1.238541 z M 10.340687,17.788478 H 21.886401 V 10.661623 H 10.340687 Z"
       style="fill:#787878;stroke-width:1.04961"
       id="path8" />
    <rect
       x="9.1546278"
       y="18.985033"
       width="13.938826"
       height="9.4989748"
       style="fill:#cdcece;stroke-width:1.04961"
       id="rect9" />
    <path
       d="M 23.093453,29.659572 H 9.1546272 A 1.1755637,1.1755637 0 0 1 8.0000557,28.484008 v -9.446494 a 1.1860598,1.1860598 0 0 1 1.1545715,-1.23854 H 23.093453 a 1.1965559,1.1965559 0 0 1 1.18606,1.18606 v 9.498974 a 1.1860598,1.1860598 0 0 1 -1.18606,1.175564 z M 10.340687,27.297948 H 21.886401 V 20.171094 H 10.340687 Z"
       style="fill:#787878;stroke-width:1.04961"
       id="path9" />
    <rect
       x="9.1546278"
       y="28.431526"
       width="13.938826"
       height="9.4989748"
       style="fill:#cdcece;stroke-width:1.04961"
       id="rect10" />
    <path
       d="M 23.093453,39.116562 H 9.1546272 A 1.1860598,1.1860598 0 0 1 8.0000557,37.930502 V 28.484008 A 1.1755637,1.1755637 0 0 1 9.1546272,27.255964 H 23.093453 a 1.1860598,1.1860598 0 0 1 1.18606,1.175564 v 9.498974 a 1.1965559,1.1965559 0 0 1 -1.18606,1.18606 z M 10.340687,36.744442 H 21.886401 V 29.617587 H 10.340687 Z"
       style="fill:#787878;stroke-width:1.04961"
       id="path10" />
    <rect
       x="9.1546278"
       y="37.888519"
       width="13.938826"
       height="9.4989748"
       style="fill:#cdcece;stroke-width:1.04961"
       id="rect11" />
    <path
       d="M 23.093453,48.563055 H 9.1546272 A 1.1860598,1.1860598 0 0 1 8.0000557,47.376995 V 37.930502 A 1.1755637,1.1755637 0 0 1 9.1546272,36.702458 H 23.093453 a 1.1860598,1.1860598 0 0 1 1.18606,1.186059 v 9.446494 a 1.1965559,1.1965559 0 0 1 -1.18606,1.228044 z M 10.340687,46.190936 H 21.886401 V 39.064081 H 10.340687 Z"
       style="fill:#787878;stroke-width:1.04961"
       id="path11" />
    <rect
       x="9.1546278"
       y="47.387493"
       width="13.938826"
       height="9.4989748"
       style="fill:#cdcece;stroke-width:1.04961"
       id="rect12" />
    <path
       d="M 23.093453,58.062029 H 9.1546272 A 1.1755637,1.1755637 0 0 1 8.0000557,56.886466 v -9.498974 a 1.1860598,1.1860598 0 0 1 1.1545715,-1.18606 H 23.093453 a 1.1965559,1.1965559 0 0 1 1.18606,1.18606 v 9.498974 a 1.1860598,1.1860598 0 0 1 -1.18606,1.175563 z M 10.340687,55.700406 H 21.886401 V 48.573551 H 10.340687 Z"
       style="fill:#787878;stroke-width:1.04961"
       id="path12" />
  </g>
  <path
     id="rect13"
     style="fill:#f3c017;stroke:#4c4c4c;stroke-width:0.3;stroke-linecap:round;stroke-linejoin:round;fill-opacity:1;stroke-opacity:1;stroke-dasharray:none"
     d="M 35.502464,22.850791 V 33.212628 H 25.140627 v 6.976146 h 10.361837 v 10.35981 H 42.47861 V 40.188774 H 52.840448 V 33.212628 H 42.47861 V 22.850791 Z" />
</svg>
