<?xml version="1.0" encoding="UTF-8" standalone="no"?>
<svg
   id="Layer_1"
   data-name="Layer 1"
   viewBox="0 0 64 64"
   version="1.1"
   sodipodi:docname="lqScalarColorPreset.svg"
   inkscape:version="1.3 (1:1.3+202307231459+0e150ed6c4)"
   xmlns:inkscape="http://www.inkscape.org/namespaces/inkscape"
   xmlns:sodipodi="http://sodipodi.sourceforge.net/DTD/sodipodi-0.dtd"
   xmlns="http://www.w3.org/2000/svg"
   xmlns:svg="http://www.w3.org/2000/svg">
  <defs
     id="defs17" />
  <sodipodi:namedview
     id="namedview17"
     pagecolor="#505050"
     bordercolor="#eeeeee"
     borderopacity="1"
     inkscape:showpageshadow="0"
     inkscape:pageopacity="0"
     inkscape:pagecheckerboard="0"
     inkscape:deskcolor="#d1d1d1"
     inkscape:zoom="13.96875"
     inkscape:cx="30.782998"
     inkscape:cy="33.574944"
     inkscape:window-width="1850"
     inkscape:window-height="1136"
     inkscape:window-x="0"
     inkscape:window-y="0"
     inkscape:window-maximized="1"
     inkscape:current-layer="g18" />
  <title
     id="title1">SVG_Artboards</title>
  <g
     id="g17"
     transform="translate(-3.0986797,-0.8188942)">
    <rect
       x="10.280627"
       y="7.4499998"
       width="28.969999"
       height="49.099998"
       style="fill:#a7d28c;stroke:#6f6f59;stroke-width:2.2536px;stroke-linecap:round;stroke-linejoin:round"
       id="rect1" />
    <rect
       x="11.380628"
       y="52.470001"
       width="26.709999"
       height="2.96"
       style="fill:#603c89"
       id="rect2" />
    <rect
       x="11.380628"
       y="49.509998"
       width="26.709999"
       height="2.96"
       style="fill:#46449b"
       id="rect3" />
    <rect
       x="11.380628"
       y="46.619999"
       width="26.709999"
       height="2.96"
       style="fill:#2a5aa8"
       id="rect4" />
    <rect
       x="11.380628"
       y="43.66"
       width="26.709999"
       height="2.96"
       style="fill:#0c71b8"
       id="rect5" />
    <rect
       x="11.380628"
       y="40.68"
       width="26.709999"
       height="2.96"
       style="fill:#0d7fc2"
       id="rect6" />
    <rect
       x="11.380628"
       y="37.720001"
       width="26.709999"
       height="2.96"
       style="fill:#198ece"
       id="rect7" />
    <rect
       x="11.380628"
       y="34.82"
       width="26.709999"
       height="2.96"
       style="fill:#25a1db"
       id="rect8" />
    <rect
       x="11.380628"
       y="31.860001"
       width="26.709999"
       height="2.96"
       style="fill:#12b2d2"
       id="rect9" />
    <rect
       x="11.380628"
       y="28.85"
       width="26.709999"
       height="2.96"
       style="fill:#4bb88e"
       id="rect10" />
    <rect
       x="11.380628"
       y="25.950001"
       width="26.709999"
       height="2.96"
       style="fill:#98c37e"
       id="rect11" />
    <rect
       x="11.380628"
       y="22.99"
       width="26.709999"
       height="2.96"
       style="fill:#a4c661"
       id="rect12" />
    <rect
       x="11.380628"
       y="20.09"
       width="26.709999"
       height="2.96"
       style="fill:#c6c835"
       id="rect13" />
    <rect
       x="11.380628"
       y="17.129999"
       width="26.709999"
       height="2.96"
       style="fill:#e8c61d"
       id="rect14" />
    <rect
       x="11.380628"
       y="14.15"
       width="26.709999"
       height="2.96"
       style="fill:#e2ae27"
       id="rect15" />
    <rect
       x="11.380628"
       y="11.19"
       width="26.709999"
       height="2.96"
       style="fill:#dc9a2a"
       id="rect16" />
    <rect
       x="11.380628"
       y="8.3000002"
       width="26.709999"
       height="2.96"
       style="fill:#c58338"
       id="rect17" />
  </g>
  <g
     id="g18"
     transform="matrix(0.67626646,0,0,0.67626646,1.4740566,15.009973)">
    <path
       d="m 45.755981,11.037472 c -14,3.48 -23.41,19 -19.93,33.06 5.77,23.29 34.06,26.23 40.27,16.17 2.94,-7.43 -12.77,-8.56 -9.58,-15.63 2.33,-5.17 26,1.25 22.3,-13.67 -4.32,-17.45 -19,-23.4100001 -33.06,-19.93 z"
       style="fill:#f6d6ad"
       id="path1" />
    <path
       d="m 53.335981,66.877472 a 28,28 0 0 1 -4.41,-0.35 29.26,29.26 0 0 1 -24.2,-22.14 28.53,28.53 0 0 1 3.52,-21.37 28.52,28.52 0 0 1 17.24,-13.0800001 c 13.71,-3.4 29.71,1.7000001 34.43,20.7600001 0.77,3.14 0.47,5.7 -0.9,7.64 -2.64,3.73 -8.55,4.3 -13.76,4.8 -3.34,0.32 -7.14,0.68 -7.71,2 -1.08,2.39 0.54,3.8 4.24,6.25 3.19,2.12 7.17,4.75 5.35,9.34 a 0.89,0.89 0 0 1 -0.08,0.17 c -2.37,3.8 -7.52,5.98 -13.72,5.98 z m 0,-55.65 a 30.53,30.53 0 0 0 -7.3,0.9 c -13.54,3.35 -22.47,18.16 -19.12,31.7 a 27,27 0 0 0 22.36,20.48 c 7,1.1 13.37,-0.73 15.8,-4.54 1,-2.64 -1.06,-4.24 -4.54,-6.54 -3.13,-2.08 -7,-4.66 -5.05,-9.06 1.12,-2.47 5,-2.84 9.56,-3.28 4.73,-0.45 10.09,-1 12.13,-3.86 1,-1.39 1.17,-3.28 0.55,-5.79 -3.53,-14.23 -13.87,-20.01 -24.4,-20.01 z m 12.77,49 z"
       style="fill:#6f6f59"
       id="path2" />
    <path
       d="m 45.125981,45.977472 c -0.78,-3.14 -3,-5.05 -6.1,-4.27 a 5.86,5.86 0 0 0 2.82,11.37 c 3.14,-0.78 4.05,-3.96 3.28,-7.1 z"
       style="fill:#603c89;fill-opacity:1"
       id="path3" />
    <path
       d="m 44.705981,30.137472 c 0.46,-3.2 -0.83,-5.8 -4,-6.26 a 5.86,5.86 0 1 0 -1.71,11.59 c 3.2,0.47 5.2,-2.08 5.71,-5.33 z"
       style="fill:#25a1db;fill-opacity:1"
       id="path4" />
    <path
       d="m 60.075981,21.387472 a 5.86,5.86 0 1 0 -11.37,2.8 c 0.78,3.14 3.95,4.05 7.09,3.27 3.14,-0.78 5.06,-2.95 4.28,-6.07 z"
       style="fill:#e2ae27;fill-opacity:1"
       id="path5" />
    <path
       d="m 48.035981,69.087472 c 3.88,-3.43 11.1,-13.25 18.43,-25.42 1.66,-2.74 3.21,-5.42 4.63,-8 l -6.9,-4.18 c -1.61,2.46 -3.26,5.09 -4.92,7.83 -7.36,12.17 -12.69,23.13 -13.9,28.16 z"
       style="fill:#a1884c"
       id="path6" />
    <path
       d="m 48.035981,70.217472 a 1.12,1.12 0 0 1 -0.58,-0.17 l -2.66,-1.6 a 1.14,1.14 0 0 1 -0.52,-1.23 c 1.29,-5.32 6.79,-16.5 14,-28.48 1.62,-2.68 3.28,-5.35 4.92,-7.86 a 1.12,1.12 0 0 1 1.53,-0.35 l 6.94,4.18 a 1.13,1.13 0 0 1 0.4,1.51 c -1.47,2.65 -3,5.35 -4.65,8 -7.22,12.01 -14.53,22.09 -18.64,25.71 a 1.1,1.1 0 0 1 -0.74,0.29 z m -1.35,-3.26 1.2,0.73 c 4,-3.88 11,-13.56 17.62,-24.6 1.41,-2.34 2.78,-4.69 4.08,-7 l -5.07,-3.06 c -1.45,2.24 -2.89,4.55 -4.3,6.88 -6.66,11.03 -12.02,21.69 -13.53,27.05 z"
       style="fill:#6f6f59"
       id="path7" />
    <path
       d="m 60.435981,37.387472 a 26,26 0 0 0 7.16,4.4 c 1.23,-2.09 2.41,-4.14 3.5,-6.11 l -6.9,-4.19 c -1.26,1.9 -2.5,3.84 -3.76,5.9 z"
       style="fill:#cdcece"
       id="path8" />
    <path
       d="m 67.595981,42.907472 a 1.09,1.09 0 0 1 -0.43,-0.08 27.83,27.83 0 0 1 -3.7,-1.86 27.55,27.55 0 0 1 -3.77,-2.75 1.13,1.13 0 0 1 -0.22,-1.44 c 1.24,-2 2.5,-4 3.74,-5.9 a 1.12,1.12 0 0 1 1.53,-0.35 l 6.94,4.18 a 1.13,1.13 0 0 1 0.4,1.51 c -1.12,2 -2.3,4.08 -3.52,6.14 a 1.13,1.13 0 0 1 -0.97,0.55 z m -5.69,-5.78 a 24.2,24.2 0 0 0 2.72,1.91 27.13,27.13 0 0 0 2.5,1.35 q 1.27,-2.16 2.46,-4.28 l -5.07,-3.06 c -0.87,1.34 -1.74,2.69 -2.61,4.08 z"
       style="fill:#6f6f59"
       id="path9" />
    <path
       d="m 82.045981,18.387472 c 2.72,-2.62 -11.69,-0.4 -15.9,6.58 v 0 a 5.94,5.94 0 0 0 -0.4,0.59 c -2.09,3.46 -1.47,7.67 1.38,9.39 2.85,1.72 6.85,0.3 8.94,-3.17 2.69,-4.47 2.13,-9.69 5.98,-13.39 z"
       style="fill:#ffffff"
       id="path10" />
    <path
       d="m 69.785981,36.787472 a 6.26,6.26 0 0 1 -3.25,-0.89 6.62,6.62 0 0 1 -3.07,-4.84 9.27,9.27 0 0 1 1.32,-6.1 5.25,5.25 0 0 1 0.43,-0.63 c 3.52,-5.76 13.13,-8.46 16.43,-8.11 a 1.89,1.89 0 0 1 1.79,1.17 1.71,1.71 0 0 1 -0.61,1.84 c -2,1.95 -2.71,4.44 -3.45,7.07 a 23.25,23.25 0 0 1 -2.35,6.09 8.74,8.74 0 0 1 -7.24,4.4 z m 10.66,-18.35 c -3.11,0.26 -10.63,2.62 -13.34,7.1 a 0.41,0.41 0 0 1 -0.07,0.11 4.43,4.43 0 0 0 -0.32,0.48 7,7 0 0 0 -1,4.6 4.37,4.37 0 0 0 2,3.24 c 2.31,1.4 5.63,0.15 7.4,-2.78 a 21.78,21.78 0 0 0 2.08,-5.54 c 0.7,-2.47 1.41,-5.01 3.25,-7.21 z"
       style="fill:#6f6f59"
       id="path11" />
    <path
       d="m 69.955981,34.937472 c -2.85,-1.72 -3.46,-5.93 -1.37,-9.39 a 6,6 0 0 1 0.39,-0.59 v 0 c 2.62,-4.34 9.22,-6.84 13.12,-7.48 -1.84,-0.85 -12.44,1.66 -15.9,7.48 v 0 a 5.94,5.94 0 0 0 -0.4,0.59 c -2.09,3.46 -1.47,7.67 1.38,9.39 a 5.37,5.37 0 0 0 4.14,0.54 4.83,4.83 0 0 1 -1.36,-0.54 z"
       style="fill:#d0e5f6"
       id="path12" />
    <path
       d="m 69.785981,36.787472 a 6.26,6.26 0 0 1 -3.25,-0.89 6.62,6.62 0 0 1 -3.07,-4.84 9.27,9.27 0 0 1 1.32,-6.1 5.25,5.25 0 0 1 0.43,-0.63 c 3.52,-5.76 13.13,-8.46 16.43,-8.11 a 1.89,1.89 0 0 1 1.79,1.17 1.71,1.71 0 0 1 -0.61,1.84 c -2,1.95 -2.71,4.44 -3.45,7.07 a 23.25,23.25 0 0 1 -2.35,6.09 8.74,8.74 0 0 1 -7.24,4.4 z m 10.66,-18.35 c -3.11,0.26 -10.63,2.62 -13.34,7.1 a 0.41,0.41 0 0 1 -0.07,0.11 4.43,4.43 0 0 0 -0.32,0.48 7,7 0 0 0 -1,4.6 4.37,4.37 0 0 0 2,3.24 c 2.31,1.4 5.63,0.15 7.4,-2.78 a 21.78,21.78 0 0 0 2.08,-5.54 c 0.7,-2.47 1.41,-5.01 3.25,-7.21 z"
       style="fill:#6f6f59"
       id="path13" />
  </g>
</svg>
