<?xml version="1.0" encoding="UTF-8"?><svg id="Layer_2" xmlns="http://www.w3.org/2000/svg" viewBox="0 0 1470.62 219.31"><g id="Layer_3"><g><circle cx="73.5" cy="149.15" r="15.63" style="fill:#3eae2b;"/><g><circle cx="208.14" cy="116.76" r="15.63" style="fill:#3eae2b;"/><circle cx="163.26" cy="127.56" r="15.63" style="fill:#3eae2b;"/><circle cx="118.38" cy="138.35" r="15.63" style="fill:#3eae2b;"/></g></g><g><path d="m301.1,22.31h23.1v170.52h92.4v21.58h-115.5V22.31Z" style="fill:#0068c7;"/><path d="m458.43,3.16c7.9,0,14.29,6.69,14.29,14.59s-6.38,14.28-14.29,14.28-14.59-6.38-14.59-14.28,6.38-14.59,14.59-14.59Zm-11.25,64.74h22.19v146.51h-22.19V67.9Z" style="fill:#0068c7;"/><path d="m620.48,208.33c-16.72,6.38-38.3,8.51-51.67,8.51-47.72,0-69.91-25.84-69.91-76.29,0-44.38,20.67-75.08,67.78-75.08,12.16,0,23.71,1.82,31.61,5.47V7.11h22.19v201.22Zm-52.28-12.46c9.73,0,21.28-.91,30.09-4.26v-99.09c-4.86-2.43-14.89-6.08-30.4-6.08-37.69,0-46.81,21.28-46.81,55.02,0,39.51,13.68,54.41,47.11,54.41Z" style="fill:#0068c7;"/><path d="m761.25,208.33c-13.68,4.86-35.26,8.51-55.62,8.51-35.26,0-58.66-11.85-58.66-44.98s23.4-45.29,63.22-45.29h28.88v-14.29c0-20.06-13.98-26.44-37.08-26.44-17.02,0-31,3.04-40.12,6.38l-3.34-20.36c11.86-3.34,26.75-6.38,44.38-6.38,33.44,0,58.36,12.16,58.36,48.63v94.23Zm-22.19-64.13h-28.57c-27.05,0-41.34,6.69-41.34,27.36s14.28,26.14,35.87,26.14c10.64,0,24.62-1.22,34.04-4.26v-49.24Z" style="fill:#0068c7;"/><path d="m792.91,73.98c9.73-4.56,27.96-8.21,45.9-8.21,11.55,0,21.28,1.22,29.18,3.65l-4.26,20.67c-4.56-1.82-13.68-3.34-24.32-3.34-12.46,0-19.15,1.52-24.32,3.95v123.71h-22.19V73.98Z" style="fill:#0068c7;"/><path d="m969.13,214.41h-24.01l-71.73-192.1h23.71l59.88,162.61,60.18-162.61h23.71l-71.73,192.1Z" style="fill:#3eae2b;"/><path d="m1068.47,3.16c7.9,0,14.29,6.69,14.29,14.59s-6.38,14.28-14.29,14.28-14.59-6.38-14.59-14.28,6.38-14.59,14.59-14.59Zm-11.25,64.74h22.19v146.51h-22.19V67.9Z" style="fill:#3eae2b;"/><path d="m1231.83,149.97h-100v1.22c0,31,17.93,44.68,48.33,44.68,17.02,0,34.96-4.26,45.9-10.03l3.34,20.97c-14.29,6.38-31.61,10.03-49.55,10.03-46.81,0-70.52-23.4-70.52-75.38,0-42.25,15.5-75.99,63.53-75.99,38.6,0,61.4,21.58,61.4,64.13,0,6.08-.61,13.98-2.43,20.36Zm-100-18.84h81.15v-1.82c0-31.31-15.8-44.07-40.73-44.07s-40.43,12.46-40.43,44.07v1.82Z" style="fill:#3eae2b;"/><path d="m1305.87,184.32l39.82-116.42h22.49l39.82,116.42,39.82-116.42h22.8l-51.07,146.51h-22.8l-39.82-112.16-39.82,112.16h-22.8l-51.07-146.51h22.8l39.82,116.42Z" style="fill:#3eae2b;"/></g><g><circle cx="113.24" cy="15.64" r="15.63" style="fill:#3eae2b;"/><circle cx="99.91" cy="59.85" r="15.63" style="fill:#3eae2b;"/><circle cx="86.58" cy="104.07" r="15.63" style="fill:#3eae2b;"/><g><circle cx="15.64" cy="203.67" r="15.63" style="fill:#0068c7;"/><g><circle cx="150.29" cy="171.28" r="15.63" style="fill:#0068c7;"/><circle cx="105.4" cy="182.08" r="15.63" style="fill:#0068c7;"/><circle cx="60.52" cy="192.87" r="15.63" style="fill:#0068c7;"/><circle cx="15.64" cy="203.67" r="15.63" style="fill:#0068c7;"/><circle cx="195.17" cy="160.49" r="15.63" style="fill:#0068c7;"/></g></g><circle cx="28.61" cy="159.94" r="15.63" style="fill:#0068c7;"/><circle cx="28.61" cy="159.94" r="15.63" style="fill:#0068c7;"/><circle cx="15.64" cy="203.67" r="15.63" style="fill:#0068c7;"/><circle cx="54.83" cy="70.84" r="15.63" style="fill:#0068c7;"/><circle cx="41.77" cy="115.12" r="15.63" style="fill:#0068c7;"/><circle cx="15.64" cy="203.67" r="15.63" style="fill:#0068c7;"/><circle cx="67.9" cy="26.57" r="15.63" style="fill:#0068c7;"/></g></g></svg>