<?xml version="1.0" encoding="UTF-8"?><svg id="Layer_2" xmlns="http://www.w3.org/2000/svg" viewBox="0 0 223.78 219.31"><g id="Layer_3"><g><circle cx="73.5" cy="149.15" r="15.63" style="fill:#3eae2b;"/><g><circle cx="208.14" cy="116.76" r="15.63" style="fill:#3eae2b;"/><circle cx="163.26" cy="127.56" r="15.63" style="fill:#3eae2b;"/><circle cx="118.38" cy="138.35" r="15.63" style="fill:#3eae2b;"/></g></g><g><circle cx="113.24" cy="15.64" r="15.63" style="fill:#3eae2b;"/><circle cx="99.91" cy="59.85" r="15.63" style="fill:#3eae2b;"/><circle cx="86.58" cy="104.07" r="15.63" style="fill:#3eae2b;"/><g><circle cx="15.64" cy="203.67" r="15.63" style="fill:#0068c7;"/><g><circle cx="150.29" cy="171.28" r="15.63" style="fill:#0068c7;"/><circle cx="105.4" cy="182.08" r="15.63" style="fill:#0068c7;"/><circle cx="60.52" cy="192.87" r="15.63" style="fill:#0068c7;"/><circle cx="15.64" cy="203.67" r="15.63" style="fill:#0068c7;"/><circle cx="195.17" cy="160.49" r="15.63" style="fill:#0068c7;"/></g></g><circle cx="28.61" cy="159.94" r="15.63" style="fill:#0068c7;"/><circle cx="28.61" cy="159.94" r="15.63" style="fill:#0068c7;"/><circle cx="15.64" cy="203.67" r="15.63" style="fill:#0068c7;"/><circle cx="54.83" cy="70.84" r="15.63" style="fill:#0068c7;"/><circle cx="41.77" cy="115.12" r="15.63" style="fill:#0068c7;"/><circle cx="15.64" cy="203.67" r="15.63" style="fill:#0068c7;"/><circle cx="67.9" cy="26.57" r="15.63" style="fill:#0068c7;"/></g></g></svg>