<?xml version="1.0" encoding="UTF-8" standalone="no"?>
<svg
   id="Layer_2"
   viewBox="0 0 164 164"
   version="1.1"
   width="164"
   height="164"
   xmlns="http://www.w3.org/2000/svg"
   xmlns:svg="http://www.w3.org/2000/svg">
  <defs
     id="defs10" />
  <g
     id="Layer_3">
    <g
       id="g10">
      <g
         id="g2"
         transform="matrix(8.5026072,0,0,8.5026072,43.541434,-110.10185)">
        <path
           d="M 1.7247119,29.068522 1.1325125,28.599376 a 2.2098531,2.2098531 0 0 0 0,-0.299945 2.6097801,2.6097801 0 0 0 -0.02307,-0.315327 l 0.6075811,-0.453763 a 0.22303622,0.22303622 0 0 0 0.056401,-0.287127 l -0.5742578,-0.99469 a 0.22303622,0.22303622 0 0 0 -0.27687203,-0.09486 l -0.7049996,0.289695 a 2.2662531,2.2662531 0 0 0 -0.5358001,-0.310199 l -0.1025454,-0.753709 a 0.22047258,0.22047258 0 0 0 -0.2204726,-0.189709 H -1.7849039 a 0.22047258,0.22047258 0 0 0 -0.2204726,0.189709 L -2.107922,26.13316 a 2.3072713,2.3072713 0 0 0 -0.5588722,0.325582 l -0.7049996,-0.279437 a 0.22559985,0.22559985 0 0 0 -0.2768726,0.09485 l -0.561436,0.999818 a 0.22047258,0.22047258 0 0 0 0.058964,0.287127 l 0.6050178,0.458891 a 2.1713985,2.1713985 0 0 0 -0.020509,0.279436 2.6123438,2.6123438 0 0 0 0.023073,0.317891 l -0.5998906,0.466581 a 0.22559985,0.22559985 0 0 0 -0.0564,0.287127 l 0.5742541,0.989563 a 0.22559985,0.22559985 0 0 0 0.2768726,0.09485 l 0.7049996,-0.289691 a 2.3739257,2.3739257 0 0 0 0.5357995,0.3102 l 0.1025455,0.751145 a 0.22047258,0.22047258 0 0 0 0.2204725,0.192272 h 1.14338107 a 0.22047258,0.22047258 0 0 0 0.2204726,-0.192272 l 0.1025452,-0.751145 a 2.3072713,2.3072713 0 0 0 0.558872,-0.325582 l 0.7050003,0.279437 A 0.22303622,0.22303622 0 0 0 1.2222398,30.350333 L 1.783676,29.355643 A 0.22047258,0.22047258 0 0 0 1.724717,29.068524 Z m -1.87401693,-0.769091 a 1.0510902,1.0510902 0 1 1 -1.05109027,-1.051091 1.0510902,1.0510902 0 0 1 1.05109027,1.051091 z"
           style="fill:#cdcece;stroke-width:0.256364"
           id="path4-5" />
        <path
           d="M -0.64152293,31.716756 H -1.7849039 a 0.51272694,0.51272694 0 0 1 -0.512727,-0.440945 l -0.079473,-0.594763 a 2.4969802,2.4969802 0 0 1 -0.3101999,-0.179455 l -0.5383632,0.228164 a 0.51272694,0.51272694 0 0 1 -0.6357811,-0.215346 l -0.5742542,-0.992126 a 0.51272694,0.51272694 0 0 1 0.1281818,-0.658855 l 0.4742725,-0.369163 a 1.5535626,1.5535626 0 0 1 0,-0.187145 c 0,-0.04871 0,-0.102545 0,-0.156382 l -0.4922179,-0.364036 a 0.51272694,0.51272694 0 0 1 -0.1358727,-0.65629 l 0.561436,-0.997254 a 0.51272694,0.51272694 0 0 1 0.6332178,-0.223037 l 0.5588724,0.220473 a 2.9302345,2.9302345 0 0 1 0.3358361,-0.194836 l 0.079473,-0.594763 a 0.51272694,0.51272694 0 0 1 0.5127269,-0.440945 h 1.14338107 a 0.51272694,0.51272694 0 0 1 0.5127269,0.440945 l 0.079473,0.594763 a 2.4969802,2.4969802 0 0 1 0.3101996,0.179454 L 0.82231247,25.88705 A 0.51272694,0.51272694 0 0 1 1.458094,26.10496 l 0.5742541,0.989562 A 0.51272694,0.51272694 0 0 1 1.9041667,27.753377 L 1.4324574,28.12254 q 0,0.09742 0,0.184582 c 0,0.05128 0,0.105109 0,0.158945 l 0.4691455,0.361473 a 0.51272694,0.51272694 0 0 1 0.133309,0.658854 l -0.5614362,0.997254 a 0.51272694,0.51272694 0 0 1 -0.63321783,0.223036 l -0.5588725,-0.223036 a 2.4508348,2.4508348 0 0 1 -0.3358358,0.1974 l -0.079473,0.594763 a 0.51272694,0.51272694 0 0 1 -0.5075995,0.440945 z M -1.7259404,31.139939 h 1.02545387 l 0.094855,-0.694746 a 0.28456345,0.28456345 0 0 1 0.1743267,-0.228163 2.0098896,2.0098896 0 0 0 0.4896543,-0.287127 0.28712709,0.28712709 0 0 1 0.2845633,-0.04102 l 0.6537269,0.256363 0.51272673,-0.894708 -0.55887253,-0.425563 a 0.29225436,0.29225436 0 0 1 -0.1127998,-0.256363 1.8611988,1.8611988 0 0 0 0,-0.533237 0.29225436,0.29225436 0 0 1 0.1102361,-0.256363 L 1.5016761,27.348326 0.98894847,26.458745 0.33778527,26.715108 a 0.27943618,0.27943618 0 0 1 -0.2845632,-0.03846 2.027835,2.027835 0 0 0 -0.4717087,-0.271745 0.28456345,0.28456345 0 0 1 -0.1743272,-0.228164 l -0.105109,-0.697308 H -1.7233767 l -0.094854,0.694744 a 0.29225436,0.29225436 0 0 1 -0.1768908,0.228165 2.0098896,2.0098896 0 0 0 -0.4896542,0.287127 0.28456345,0.28456345 0 0 1 -0.2845635,0.04101 l -0.6537268,-0.25636 -0.512727,0.894708 0.5639997,0.417873 a 0.28456345,0.28456345 0 0 1 0.1127999,0.256364 1.9252897,1.9252897 0 0 0 -0.017945,0.256363 2.3893076,2.3893076 0 0 0 0.020509,0.279436 0.29738162,0.29738162 0 0 1 -0.1076726,0.256364 l -0.5563087,0.43069 0.5127269,0.889582 0.6511632,-0.256364 a 0.28456345,0.28456345 0 0 1 0.2845634,0.03589 1.9996351,1.9996351 0 0 0 0.4717088,0.274309 0.29225436,0.29225436 0 0 1 0.1768908,0.228163 z m 3.2763251,-1.850945 z m -2.7635981,0.358909 a 1.3407809,1.3407809 0 1 1 1.34078087,-1.348472 1.3407809,1.3407809 0 0 1 -1.34078087,1.348472 z m 0,-2.102181 a 0.76909041,0.76909041 0 1 0 0.76909037,0.769091 0.76909041,0.76909041 0 0 0 -0.76909037,-0.769091 z"
           style="fill:#787878;stroke-width:0.256364"
           id="path5" />
      </g>
      <g
         id="g29"
         transform="matrix(0.45865242,0,0,0.45865242,56.936987,4.3756039)">
        <g
           id="g5">
          <circle
             cx="73.5"
             cy="149.14999"
             r="15.63"
             style="fill:#3eae2b"
             id="circle1" />
          <g
             id="g4">
            <circle
               cx="208.14"
               cy="116.76"
               r="15.63"
               style="fill:#3eae2b"
               id="circle2" />
            <circle
               cx="163.25999"
               cy="127.56"
               r="15.63"
               style="fill:#3eae2b"
               id="circle3" />
            <circle
               cx="118.38"
               cy="138.35001"
               r="15.63"
               style="fill:#3eae2b"
               id="circle4" />
          </g>
        </g>
        <g
           id="g28">
          <circle
             cx="113.24"
             cy="15.64"
             r="15.63"
             style="fill:#3eae2b"
             id="circle13" />
          <circle
             cx="99.910004"
             cy="59.849998"
             r="15.63"
             style="fill:#3eae2b"
             id="circle14" />
          <circle
             cx="86.580002"
             cy="104.07"
             r="15.63"
             style="fill:#3eae2b"
             id="circle15" />
          <g
             id="g22">
            <circle
               cx="15.64"
               cy="203.67"
               r="15.63"
               style="fill:#0068c7"
               id="circle16" />
            <g
               id="g21">
              <circle
                 cx="150.28999"
                 cy="171.28"
                 r="15.63"
                 style="fill:#0068c7"
                 id="circle17" />
              <circle
                 cx="105.4"
                 cy="182.08"
                 r="15.63"
                 style="fill:#0068c7"
                 id="circle18" />
              <circle
                 cx="60.52"
                 cy="192.87"
                 r="15.63"
                 style="fill:#0068c7"
                 id="circle19" />
              <circle
                 cx="15.64"
                 cy="203.67"
                 r="15.63"
                 style="fill:#0068c7"
                 id="circle20" />
              <circle
                 cx="195.17"
                 cy="160.49001"
                 r="15.63"
                 style="fill:#0068c7"
                 id="circle21" />
            </g>
          </g>
          <circle
             cx="28.610001"
             cy="159.94"
             r="15.63"
             style="fill:#0068c7"
             id="circle22" />
          <circle
             cx="28.610001"
             cy="159.94"
             r="15.63"
             style="fill:#0068c7"
             id="circle23" />
          <circle
             cx="15.64"
             cy="203.67"
             r="15.63"
             style="fill:#0068c7"
             id="circle24" />
          <circle
             cx="54.830002"
             cy="70.839996"
             r="15.63"
             style="fill:#0068c7"
             id="circle25" />
          <circle
             cx="41.77"
             cy="115.12"
             r="15.63"
             style="fill:#0068c7"
             id="circle26" />
          <circle
             cx="15.64"
             cy="203.67"
             r="15.63"
             style="fill:#0068c7"
             id="circle27" />
          <circle
             cx="67.900002"
             cy="26.57"
             r="15.63"
             style="fill:#0068c7"
             id="circle28" />
        </g>
      </g>
    </g>
  </g>
</svg>
