<?xml version="1.0" encoding="UTF-8" standalone="no"?>
<svg
   class="MuiSvgIcon-root MuiSvgIcon-fontSizeMedium MuiBox-root css-uqopch"
   focusable="false"
   aria-hidden="true"
   viewBox="0 0 24 24"
   data-testid="FileOpenIcon"
   version="1.1"
   id="svg1"
   width="576"
   height="576"
   xmlns="http://www.w3.org/2000/svg"
   xmlns:svg="http://www.w3.org/2000/svg">
  <defs
     id="defs1" />
  <g
     id="g5"
     transform="translate(-0.35840474,1.2746553)">
    <g
       id="g4">
      <g
         id="g2">
        <path
           id="path1"
           style="fill:#2896d3;fill-opacity:1;stroke:#4c4c4c;stroke-width:0.4;stroke-linejoin:round;stroke-dasharray:none;stroke-opacity:1"
           d="m 4.6687307,0.54101562 c -1.0999989,0 -2,0.90000108 -2,1.99999998 V 9.0214844 H 18.658965 l 0.0098,-2.4804688 -6,-5.99999998 z m 7.0000003,1.49999998 5.5,5.5 h -5.5 z" />
        <path
           id="path1-6"
           style="fill:#d9dddd;fill-opacity:1;stroke:#4c4c4c;stroke-width:0.4;stroke-linecap:round;stroke-linejoin:round;stroke-dasharray:none;stroke-opacity:1"
           d="m 2.6687476,8.9763122 v 9.5195308 c 0,1.099999 0.8902355,2 1.990234,2 h 9.0097664 v -8 h 5 V 8.9763122 Z" />
      </g>
      <g
         id="g3">
        <text
           xml:space="preserve"
           style="font-size:19.4304px;fill:#787878;fill-opacity:1;stroke:none;stroke-width:1.6192;stroke-linecap:round"
           x="4.1777"
           y="12.614007"
           id="text3"><tspan
             id="tspan3"
             x="4.1777"
             y="12.614007"
             style="font-style:normal;font-variant:normal;font-weight:normal;font-stretch:normal;font-size:2.15892px;font-family:sans-serif;-inkscape-font-specification:'sans-serif, Normal';font-variant-ligatures:normal;font-variant-caps:normal;font-variant-numeric:normal;font-variant-east-asian:normal;stroke-width:1.6192">010101</tspan></text>
        <text
           xml:space="preserve"
           style="font-size:19.4304px;fill:#787878;fill-opacity:1;stroke:none;stroke-width:1.6192;stroke-linecap:round"
           x="4.149765"
           y="15.365734"
           id="text3-2"><tspan
             id="tspan3-0"
             x="4.149765"
             y="15.365734"
             style="font-style:normal;font-variant:normal;font-weight:normal;font-stretch:normal;font-size:2.15892px;font-family:sans-serif;-inkscape-font-specification:'sans-serif, Normal';font-variant-ligatures:normal;font-variant-caps:normal;font-variant-numeric:normal;font-variant-east-asian:normal;stroke-width:1.6192">011010</tspan></text>
        <text
           xml:space="preserve"
           style="font-size:19.4304px;fill:#787878;fill-opacity:1;stroke:none;stroke-width:1.6192;stroke-linecap:round"
           x="4.149765"
           y="18.117462"
           id="text3-2-5"><tspan
             id="tspan3-0-4"
             x="4.149765"
             y="18.117462"
             style="font-style:normal;font-variant:normal;font-weight:normal;font-stretch:normal;font-size:2.15892px;font-family:sans-serif;-inkscape-font-specification:'sans-serif, Normal';font-variant-ligatures:normal;font-variant-caps:normal;font-variant-numeric:normal;font-variant-east-asian:normal;stroke-width:1.6192">011100</tspan></text>
      </g>
    </g>
    <g
       id="g1"
       transform="matrix(0.18579622,0,0,0.18579622,15.622551,13.514631)">
      <path
         d="m 1.008405,20.574815 a 14.4,14.4 0 1 0 5.51,-11.28 l 3.66,2.44 -12,5.05 v -13 l 3.53,2.35 a 19.91,19.91 0 1 1 -6.26,14.49 z"
         style="fill:#a7d28c"
         id="path5" />
      <path
         d="m 15.358405,41.614815 a 21.07,21.07 0 0 1 -21,-21 1.14,1.14 0 0 1 1.13,-1.13 h 5.56 a 1.14,1.14 0 0 1 1.13,1.13 13.22,13.22 0 1 0 13.18,-13.26 13,13 0 0 0 -6.84,1.92 l 2.28,1.53 a 1.12,1.12 0 0 1 -0.19,2 l -12,5.05 a 1.14,1.14 0 0 1 -1.08,-0.12 1.11,1.11 0 0 1 -0.51,-0.94 v -13 a 1.14,1.14 0 0 1 1.76,-0.94 l 2.8,1.87 a 21,21 0 1 1 13.75,37 z m -18.75,-19.88 a 18.78,18.78 0 1 0 5.87,-14.8 1.12,1.12 0 0 1 -1.4,0.12 l -1.78,-1.22 v 9.25 l 8.53,-3.57 -1.9,-1.28 a 1.12,1.12 0 0 1 -0.08,-1.82 15.33,15.33 0 0 1 9.54,-3.32 15.48,15.48 0 1 1 -15.46,16.64 z"
         style="fill:#787878"
         id="path6" />
      <rect
         x="19.952217"
         y="-22.968159"
         width="2.1800001"
         height="8.79"
         rx="1.09"
         transform="rotate(89.95)"
         style="fill:#787878"
         id="rect6" />
      <rect
         x="14.198405"
         y="13.334815"
         width="2.1800001"
         height="8.79"
         rx="1.09"
         style="fill:#787878"
         id="rect7" />
    </g>
  </g>
</svg>
