<?xml version="1.0" encoding="UTF-8" standalone="no"?>
<svg
   width="64"
   height="64"
   viewBox="0 0 64 64"
   fill="none"
   version="1.1"
   id="svg2"
   xmlns="http://www.w3.org/2000/svg"
   xmlns:svg="http://www.w3.org/2000/svg">
  <defs
     id="defs2" />
  <path
     d="M 50.056973,6.9899679 49.41955,6.1804981 H 48.389114 12.798878 c -3.2114812,0 -5.8148911,2.6034099 -5.8148911,5.8148919 v 40.009221 c 0,3.211481 2.6034284,5.814891 5.8148911,5.814891 h 38.402244 c 3.211481,0 5.814891,-2.60341 5.814891,-5.814891 v -35.44167 -0.735446 l -0.455038,-0.577981 z"
     fill="#6f6f59"
     stroke="#6f6f59"
     stroke-width="2.3"
     id="path1" />
  <path
     fill-rule="evenodd"
     clip-rule="evenodd"
     d="M 17.628155,8.3045027 H 44.570669 V 15.088173 H 17.628155 Z M 40.586638,42.979346 H 23.414433 c -0.852482,0 -1.544731,-0.690772 -1.544731,-1.544546 0,-0.852482 0.690773,-1.544731 1.544731,-1.544731 l 17.172205,7.39e-4 c 0.852481,0 1.54473,0.690772 1.54473,1.54473 0,0.852297 -0.690957,1.543808 -1.54473,1.543808 z m 0,7.517639 H 23.414433 c -0.852482,0 -1.544731,-0.690772 -1.544731,-1.545284 0,-0.852482 0.690773,-1.544731 1.544731,-1.544731 h 17.172205 c 0.852481,0 1.54473,0.691511 1.54473,1.544731 0,0.853773 -0.690957,1.545284 -1.54473,1.545284 z M 17.628155,34.690264 V 55.696605 H 44.570669 V 34.690264 Z M 12.738477,8.3033951 h 1.801232 v 8.3282169 c 0,0.852297 0.691529,1.544546 1.54462,1.544546 h 30.030332 c 0.852297,0 1.544546,-0.690773 1.544546,-1.544546 V 8.3033951 h 0.739506 l 6.494403,8.2935119 V 52.06516 c 0,1.996446 -1.635184,3.630892 -3.630892,3.630892 h -3.602832 l -7.39e-4,-22.551995 c 0,-0.852482 -0.690957,-1.54473 -1.54473,-1.54473 H 16.083701 c -0.852389,0 -1.54462,0.690956 -1.54462,1.54473 v 22.551995 h -1.801213 c -1.995818,0 -3.6309842,-1.63297 -3.6309842,-3.630892 L 9.1075853,11.933179 C 9.1082868,9.9350721 10.742659,8.3033951 12.738477,8.3033951 Z"
     fill="#a7d28c"
     id="path2"
     style="stroke-width:1.846" />
</svg>
