<?xml version="1.0" encoding="UTF-8" standalone="no"?>
<svg
   class="MuiSvgIcon-root MuiSvgIcon-fontSizeMedium css-1iirmgg"
   focusable="false"
   aria-hidden="true"
   viewBox="0 0 24 24"
   data-testid="OpenInNewIcon"
   version="1.1"
   id="svg4"
   sodipodi:docname="OpenDockWidget.svg"
   inkscape:version="1.2.2 (b0a8486541, 2022-12-01)"
   xmlns:inkscape="http://www.inkscape.org/namespaces/inkscape"
   xmlns:sodipodi="http://sodipodi.sourceforge.net/DTD/sodipodi-0.dtd"
   xmlns="http://www.w3.org/2000/svg"
   xmlns:svg="http://www.w3.org/2000/svg">
  <defs
     id="defs8" />
  <sodipodi:namedview
     id="namedview6"
     pagecolor="#ffffff"
     bordercolor="#000000"
     borderopacity="0.25"
     inkscape:showpageshadow="2"
     inkscape:pageopacity="0.0"
     inkscape:pagecheckerboard="0"
     inkscape:deskcolor="#d1d1d1"
     showgrid="false"
     inkscape:zoom="13.906433"
     inkscape:cx="20.422203"
     inkscape:cy="18.876156"
     inkscape:window-width="1080"
     inkscape:window-height="1892"
     inkscape:window-x="3840"
     inkscape:window-y="0"
     inkscape:window-maximized="1"
     inkscape:current-layer="svg4" />
  <path
     d="M 20.378259,2.4248467 H 3.6217406 c -1.3285526,0 -2.3937884,1.0772047 -2.3937884,2.3937883 v 14.362729 c 0,1.316584 1.0772048,2.393789 2.3937884,2.393789 H 7.212423 c 0.6582917,0 1.1968942,-0.538603 1.1968942,-1.196895 0,-0.658292 -0.5386025,-1.196894 -1.1968942,-1.196894 H 3.6217406 V 7.2124233 H 20.378259 V 19.181364 h -3.590683 c -0.658291,0 -1.196893,0.538602 -1.196893,1.196894 0,0.658292 0.538602,1.196895 1.196893,1.196895 h 3.590683 c 1.316584,0 2.393789,-1.077205 2.393789,-2.393789 V 4.818635 c 0,-1.3165836 -1.065237,-2.3937883 -2.393789,-2.3937883 m -8.797172,7.6002783 -3.3393351,3.339333 c -0.3830061,0.383007 -0.1196894,1.02933 0.418913,1.02933 h 2.1424401 v 5.98447 c 0,0.658292 0.538603,1.196895 1.196895,1.196895 0.658292,0 1.196895,-0.538603 1.196895,-1.196895 v -5.98447 h 2.14244 c 0.538603,0 0.801919,-0.646323 0.418913,-1.01736 l -3.339335,-3.339335 c -0.22741,-0.2393785 -0.610416,-0.2393785 -0.837826,-0.01197"
     id="path4"
     style="fill:#f3c017;fill-opacity:1;stroke:#4c4c4c;stroke-width:1.058;stroke-linecap:round;stroke-linejoin:round;stroke-dasharray:none;stroke-opacity:1" />
  <!-- <path
     d="M10 9h4V6h3l-5-5-5 5h3zm-1 1H6V7l-5 5 5 5v-3h3zm14 2-5-5v3h-3v4h3v3zm-9 3h-4v3H7l5 5 5-5h-3z"
     id="path4"
     style="fill:#f3c017;fill-opacity:1;stroke:#4c4c4c;stroke-opacity:1;stroke-width:0.7;stroke-dasharray:none;stroke-linejoin:round;stroke-linecap:round" /> -->
  <!-- <path
     d="M19 19H5V5h7V3H5c-1.11 0-2 .9-2 2v14c0 1.1.89 2 2 2h14c1.1 0 2-.9 2-2v-7h-2zM14 3v2h3.59l-9.83 9.83 1.41 1.41L19 6.41V10h2V3z"
     id="path2"
     style="fill:#f3c017;fill-opacity:1;stroke:#4c4c4c;stroke-opacity:1;stroke-linecap:round;stroke-linejoin:round;stroke-width:1.1;stroke-dasharray:none" /> -->
</svg>
