<?xml version="1.0" encoding="UTF-8" standalone="no"?>
<svg
   id="Layer_1"
   data-name="Layer 1"
   viewBox="0 0 64 64"
   version="1.1"
   sodipodi:docname="lqAggregatePointsTrajectory.svg"
   inkscape:version="1.3 (1:1.3+202307231459+0e150ed6c4)"
   xmlns:inkscape="http://www.inkscape.org/namespaces/inkscape"
   xmlns:sodipodi="http://sodipodi.sourceforge.net/DTD/sodipodi-0.dtd"
   xmlns="http://www.w3.org/2000/svg"
   xmlns:svg="http://www.w3.org/2000/svg">
  <defs
     id="defs4" />
  <sodipodi:namedview
     id="namedview4"
     pagecolor="#505050"
     bordercolor="#eeeeee"
     borderopacity="1"
     inkscape:showpageshadow="0"
     inkscape:pageopacity="0"
     inkscape:pagecheckerboard="0"
     inkscape:deskcolor="#d1d1d1"
     inkscape:zoom="14.625"
     inkscape:cx="37.811966"
     inkscape:cy="37.846154"
     inkscape:window-width="1504"
     inkscape:window-height="1163"
     inkscape:window-x="26"
     inkscape:window-y="23"
     inkscape:window-maximized="0"
     inkscape:current-layer="Layer_1" />
  <title
     id="title1">SVG_Artboards</title>
  <circle
     cx="14.3"
     cy="14.32"
     r="7.79"
     style="fill:#ffc418"
     id="circle1" />
  <path
     d="M14.3,23.23a8.91,8.91,0,1,1,8.91-8.91A8.92,8.92,0,0,1,14.3,23.23Zm0-15.57A6.66,6.66,0,1,0,21,14.32,6.67,6.67,0,0,0,14.3,7.66Z"
     style="fill:#6f6f59"
     id="path1" />
  <circle
     cx="43.71"
     cy="19.62"
     r="7.79"
     style="fill:#a69768"
     id="circle2" />
  <path
     d="M43.71,28.53a8.91,8.91,0,1,1,8.91-8.91A8.92,8.92,0,0,1,43.71,28.53Zm0-15.57a6.66,6.66,0,1,0,6.66,6.66A6.67,6.67,0,0,0,43.71,13Z"
     style="fill:#6f6f59"
     id="path2" />
  <circle
     cx="49.6"
     cy="49.68"
     style="fill:#ffc418"
     id="circle3"
     r="7.79" />
  <path
     d="M49.6,58.59a8.92,8.92,0,1,1,8.91-8.91A8.92,8.92,0,0,1,49.6,58.59ZM49.6,43a6.66,6.66,0,1,0,6.66,6.66A6.66,6.66,0,0,0,49.6,43Z"
     style="fill:#6f6f59"
     id="path3" />
  <circle
     cx="19.75"
     cy="43.98"
     style="fill:#a69768"
     id="circle4"
     r="7.79" />
  <path
     d="M19.75,52.9A8.92,8.92,0,1,1,28.67,44,8.92,8.92,0,0,1,19.75,52.9Zm0-15.57A6.66,6.66,0,1,0,26.41,44,6.66,6.66,0,0,0,19.75,37.33Z"
     style="fill:#6f6f59"
     id="path4" />
  <rect
     x="30.710453"
     y="45.450031"
     width="7.6610565"
     height="1.8402971"
     style="fill:#787878"
     id="rect7"
     ry="0"
     transform="rotate(-18.909408)" />
  <rect
     x="50.265282"
     y="34.620106"
     width="7.6610565"
     height="1.8402971"
     style="fill:#787878"
     id="rect7-5"
     ry="0"
     transform="rotate(-5.6082567)" />
  <rect
     x="36.12635"
     y="30.180286"
     width="7.6610565"
     height="1.8402971"
     style="fill:#787878"
     id="rect7-6"
     ry="0"
     transform="rotate(4.1796999)" />
  <rect
     x="30.521313"
     y="21.333258"
     width="7.6610565"
     height="1.8402971"
     style="fill:#787878"
     id="rect7-6-7"
     ry="0"
     transform="rotate(16.921098)" />
  <rect
     x="15.723029"
     y="25.082796"
     width="7.6610565"
     height="1.8402971"
     style="fill:#787878"
     id="rect7-6-7-5"
     ry="0"
     transform="rotate(7.9551396)" />
  <rect
     x="-0.1513671"
     y="27.39489"
     width="7.6610565"
     height="1.8402971"
     style="fill:#787878"
     id="rect7-6-7-5-3"
     ry="0"
     transform="rotate(-3.7106831)" />
</svg>
