<?xml version="1.0" encoding="UTF-8" standalone="no"?>
<svg
   id="Layer_1"
   data-name="Layer 1"
   viewBox="0 0 64 64"
   version="1.1"
   width="4096"
   height="4096"
   xmlns="http://www.w3.org/2000/svg"
   xmlns:svg="http://www.w3.org/2000/svg">
  <defs
     id="defs9" />
  <g
     id="g2"
     transform="translate(-1.1312028)">
    <g
       id="g42"
       transform="matrix(1.0641807,0,0,1.0641807,-0.93091467,-10.334322)"
       style="fill:#f3c017;fill-opacity:1">
      <path
         d="m 6.8417969,28.787109 v 10.291016 c 0,0.156794 0.010537,0.313544 0.033203,0.46875 0.022666,0.155206 0.056889,0.309541 0.1015625,0.462891 0.044673,0.15335 0.099992,0.305806 0.1660156,0.457031 0.066023,0.151224 0.1437536,0.300389 0.2304688,0.449219 0.086715,0.148829 0.1823132,0.297193 0.2890625,0.443359 0.1067493,0.146166 0.2234837,0.290361 0.3496094,0.433594 0.1261256,0.143232 0.263359,0.285751 0.4082031,0.425781 0.1448441,0.14003 0.2980328,0.277504 0.4609375,0.414062 v -2.08789 c -0.00298,-0.07274 0.00138,-0.141427 0.011719,-0.205078 0.010341,-0.06365 0.026942,-0.123177 0.048828,-0.177735 0.043773,-0.109115 0.1082027,-0.19874 0.1875,-0.271484 0.079297,-0.07274 0.1728254,-0.127691 0.2734375,-0.164063 0.100612,-0.03637 0.2086892,-0.05469 0.3164062,-0.05469 0.107717,0 0.2157941,0.01832 0.316406,0.05469 0.100612,0.03637 0.19414,0.09132 0.273438,0.164063 0.0793,0.07274 0.143727,0.162369 0.1875,0.271484 0.02189,0.05456 0.03849,0.114084 0.04883,0.177735 0.01034,0.06365 0.0147,0.132334 0.01172,0.205078 v 3.25 c 0.325686,0.190649 0.669452,0.376919 1.03125,0.55664 0.361797,0.179722 0.741032,0.353576 1.136718,0.521485 0.395687,0.167908 0.808975,0.329166 1.236329,0.484375 0.427353,0.155209 0.869373,0.30369 1.326171,0.445312 v -4.537109 c 0,-0.139811 0.02639,-0.262329 0.07227,-0.367188 0.04588,-0.104858 0.110809,-0.191813 0.189453,-0.261718 0.07864,-0.06991 0.171227,-0.123251 0.269531,-0.158203 0.09831,-0.03495 0.201783,-0.05078 0.306641,-0.05078 0.104858,0 0.210289,0.01583 0.308594,0.05078 0.0983,0.03495 0.190887,0.0883 0.269531,0.158203 0.07864,0.0699 0.143578,0.15686 0.189453,0.261718 0.04588,0.104859 0.07227,0.227377 0.07227,0.367188 v 5.009766 c 0.626491,0.159209 1.273773,0.304749 1.939453,0.4375 0.66568,0.132751 1.349764,0.252715 2.050781,0.357421 V 44 c -9.4e-5,-0.139717 0.02646,-0.2624 0.07227,-0.367188 0.04581,-0.104787 0.110856,-0.19186 0.189453,-0.261718 0.0786,-0.06986 0.17125,-0.121321 0.269531,-0.15625 0.09828,-0.03493 0.201782,-0.05273 0.306641,-0.05273 0.104858,0 0.210265,0.01781 0.308593,0.05273 0.09833,0.03493 0.190841,0.08639 0.269532,0.15625 0.07869,0.06986 0.143507,0.156931 0.189453,0.261718 0.04595,0.104788 0.07217,0.227471 0.07227,0.367188 v 3.291016 c 0.65018,0.07273 1.311001,0.132586 1.982422,0.179687 0.671421,0.0471 1.353445,0.08145 2.042969,0.101563 h 0.712891 v -4.544922 c -9.4e-5,-0.139717 0.02646,-0.2624 0.07227,-0.367188 0.0458,-0.104787 0.110857,-0.19186 0.189453,-0.261719 0.0786,-0.06986 0.171251,-0.12132 0.269532,-0.15625 0.09828,-0.03493 0.201782,-0.05273 0.30664,-0.05273 0.104859,0 0.210266,0.01781 0.308594,0.05273 0.09833,0.03493 0.190841,0.08639 0.269531,0.15625 0.07869,0.06986 0.143508,0.156932 0.189453,0.261719 0.04595,0.104788 0.07217,0.227471 0.07227,0.367188 v 4.544922 h 3.990234 v -2.867188 c 0,-0.139811 0.02639,-0.262329 0.07227,-0.367187 0.04588,-0.104859 0.11081,-0.191814 0.189453,-0.261719 0.07864,-0.06991 0.171227,-0.123251 0.269531,-0.158203 0.0983,-0.03495 0.201783,-0.05078 0.306641,-0.05078 0.104858,0 0.210289,0.01583 0.308594,0.05078 0.09831,0.03495 0.190887,0.0883 0.269531,0.158203 0.07864,0.0699 0.143578,0.15686 0.189453,0.261719 0.04588,0.104858 0.07227,0.227376 0.07227,0.367187 v 2.867188 h 4.730469 v -4.544922 c 0.0055,-0.134042 0.03432,-0.251032 0.08203,-0.351563 0.04771,-0.100531 0.113541,-0.184932 0.191406,-0.251953 0.07787,-0.06702 0.167714,-0.11688 0.263672,-0.150391 0.09596,-0.03351 0.198792,-0.05078 0.300781,-0.05078 0.101989,0 0.204823,0.01727 0.300781,0.05078 0.09596,0.03351 0.185807,0.08337 0.263672,0.150391 0.07787,0.06702 0.143696,0.151422 0.191407,0.251953 0.04771,0.100531 0.07654,0.217521 0.08203,0.351563 v 4.544922 h 3.992187 v -2.867188 c 0,-0.139811 0.02639,-0.262329 0.07227,-0.367187 0.04588,-0.104859 0.110809,-0.191814 0.189453,-0.261719 0.07864,-0.06991 0.171227,-0.123251 0.269531,-0.158203 0.0983,-0.03495 0.201783,-0.05078 0.306641,-0.05078 0.104858,0 0.210289,0.01583 0.308594,0.05078 0.0983,0.03495 0.190887,0.0883 0.269531,0.158203 0.07864,0.0699 0.143578,0.15686 0.189453,0.261719 0.04588,0.104858 0.07227,0.227376 0.07227,0.367187 v 2.867188 h 4.730468 v -4.544922 c 0.0055,-0.134042 0.03432,-0.251032 0.08203,-0.351563 0.04771,-0.100531 0.11354,-0.184932 0.191406,-0.251953 0.07787,-0.06702 0.167714,-0.11688 0.263672,-0.150391 0.09596,-0.03351 0.198792,-0.05078 0.300781,-0.05078 0.101989,0 0.204823,0.01727 0.300781,0.05078 0.09596,0.03351 0.185807,0.08337 0.263672,0.150391 0.07787,0.06702 0.143696,0.151422 0.191406,0.251953 0.04771,0.100531 0.07654,0.217521 0.08203,0.351563 v 4.544922 h 3.974609 V 34.994141 h -6.535156 c -0.09275,0.03668 -0.191296,0.05649 -0.291016,0.05859 -0.100376,-0.0018 -0.199609,-0.02168 -0.292969,-0.05859 H 31.070312 c -0.353026,0.01907 -0.700198,0.04637 -1.058593,0.05859 -0.654103,0.0252 -1.256736,0.0332 -1.84375,0.0332 -0.611013,0 -1.214833,-0.0096 -1.8125,-0.0293 -0.597668,-0.01973 -1.188713,-0.04913 -1.771485,-0.08789 C 24.001213,34.929981 23.4257,34.881321 22.859375,34.82421 22.29305,34.7671 21.735828,34.70172 21.1875,34.626944 c -0.548328,-0.07478 -1.088407,-0.158248 -1.617188,-0.25 -0.52878,-0.09175 -1.047005,-0.192741 -1.554687,-0.300781 -0.507682,-0.108041 -1.003248,-0.224015 -1.488281,-0.347656 -0.485033,-0.123642 -0.959088,-0.254022 -1.419922,-0.392579 -0.460834,-0.138556 -0.908666,-0.284717 -1.34375,-0.4375 C 13.328588,32.745655 12.905831,32.586245 12.498047,32.419922 12.090263,32.253599 11.697292,32.079566 11.318359,31.900391 10.939426,31.721216 10.575094,31.537043 10.226563,31.345703 9.878031,31.154363 9.5450952,30.956725 9.2285156,30.753906 8.911936,30.551088 8.6112021,30.342515 8.328125,30.128906 8.0450479,29.915297 7.7792741,29.696369 7.53125,29.472656 7.2832259,29.248944 7.0532175,29.020238 6.8417969,28.787109 Z"
         style="fill:#f3c017;fill-opacity:1;stroke:none;stroke-width:0.975;stroke-linecap:round;stroke-linejoin:round"
         id="path42" />
      <path
         d="m 49.509766,28.765625 c -0.210628,0.233261 -0.439793,0.461805 -0.6875,0.685547 -0.247708,0.223742 -0.51371,0.44267 -0.796875,0.65625 -0.283166,0.21358 -0.58339,0.422224 -0.900391,0.625 -0.317001,0.202775 -0.650785,0.400468 -1,0.591797 -0.349215,0.191328 -0.713944,0.375448 -1.09375,0.554687 -0.379806,0.17924 -0.774818,0.353023 -1.183594,0.519531 -0.408775,0.166509 -0.831455,0.325382 -1.267578,0.478516 -0.436123,0.153134 -0.885808,0.300335 -1.347656,0.439453 h 8.277344 z"
         style="fill:#f3c017;fill-opacity:1;stroke:none;stroke-width:0.975;stroke-linecap:round;stroke-linejoin:round"
         id="path41" />
      <path
         d="m 28.167969,16.384766 c -0.723286,0 -1.439347,0.01546 -2.146485,0.04492 -0.707138,0.02946 -1.404681,0.07344 -2.091797,0.13086 -0.687115,0.05742 -1.364124,0.127066 -2.027343,0.210937 -0.663219,0.08387 -1.313771,0.182196 -1.949219,0.291016 -0.635448,0.10882 -1.255573,0.229063 -1.859375,0.361328 -0.603802,0.132265 -1.191483,0.275482 -1.759766,0.429688 -0.568282,0.154205 -1.117595,0.319498 -1.646484,0.49414 -0.528889,0.174642 -1.035864,0.35916 -1.521484,0.552735 -0.485621,0.193574 -0.950194,0.396419 -1.388672,0.607421 -0.438478,0.211003 -0.85082,0.429323 -1.238281,0.65625 -0.387462,0.226928 -0.7494615,0.461778 -1.0820317,0.703125 -0.3325703,0.241348 -0.6363515,0.489878 -0.9101563,0.744141 -0.2738048,0.254263 -0.5173506,0.513622 -0.7285156,0.779297 -0.1055825,0.132838 -0.2037726,0.268888 -0.2929688,0.404297 -0.089196,0.135409 -0.169862,0.270411 -0.2421875,0.408203 -0.072325,0.137792 -0.1364357,0.277982 -0.1914062,0.417969 -0.054971,0.139986 -0.099588,0.279881 -0.1367188,0.421875 -0.037131,0.141993 -0.065176,0.285875 -0.083984,0.429687 -0.018808,0.143813 -0.029297,0.288151 -0.029297,0.433594 0,0.136907 0.00871,0.272716 0.025391,0.408203 0.016681,0.135487 0.041262,0.270389 0.074219,0.404297 0.032957,0.133908 0.074217,0.268219 0.1230469,0.400391 0.04883,0.132171 0.1056242,0.2623 0.1699219,0.392578 0.1285954,0.260555 0.2865658,0.517502 0.4746094,0.769531 0.1880435,0.252029 0.406132,0.499948 0.6503906,0.742187 0.2442586,0.24224 0.5152593,0.477799 0.8125,0.708985 0.2972407,0.231186 0.6198072,0.456912 0.9667971,0.675781 0.34699,0.218869 0.717822,0.431431 1.111328,0.636719 0.393506,0.205287 0.811258,0.403308 1.248047,0.59375 0.436788,0.190442 0.894255,0.374495 1.371094,0.548828 0.476838,0.174333 0.972672,0.339133 1.486328,0.496094 0.513655,0.15696 1.044558,0.305035 1.591797,0.443359 0.547239,0.138324 1.10991,0.266343 1.6875,0.384766 0.577589,0.118423 1.170683,0.22696 1.77539,0.324218 0.604708,0.09726 1.221017,0.184936 1.84961,0.259766 0.628592,0.07483 1.268725,0.136362 1.917968,0.1875 0.649244,0.05114 1.307947,0.09101 1.97461,0.117188 0.09773,-0.04802 0.203869,-0.07659 0.3125,-0.08398 h 5.669922 c 0.604194,-0.0477 1.200715,-0.107067 1.787109,-0.175781 0.586394,-0.06871 1.162503,-0.147737 1.728516,-0.236328 0.566012,-0.08859 1.121013,-0.185634 1.664062,-0.292969 0.543049,-0.107335 1.074293,-0.224665 1.591797,-0.349609 0.517504,-0.124945 1.02234,-0.257017 1.511719,-0.398438 0.489378,-0.141421 0.963204,-0.292455 1.421875,-0.449219 0.458671,-0.156763 0.900789,-0.319261 1.326172,-0.490234 0.425382,-0.170972 0.835096,-0.349155 1.224609,-0.533203 0.389513,-0.184048 0.760266,-0.374323 1.111328,-0.570313 0.351062,-0.195989 0.682158,-0.39867 0.992188,-0.605468 0.310029,-0.206798 0.598819,-0.418293 0.865234,-0.634766 0.266415,-0.216472 0.510248,-0.437096 0.730469,-0.662109 0.22022,-0.225014 0.416447,-0.455079 0.58789,-0.6875 0.171444,-0.232421 0.317414,-0.468336 0.4375,-0.707032 0.120086,-0.238695 0.21315,-0.47882 0.279297,-0.722656 0.03307,-0.121917 0.06097,-0.244197 0.08008,-0.367187 0.0191,-0.12299 0.03034,-0.247173 0.03516,-0.371094 v -0.15625 c 0.0012,-0.0085 0.0025,-0.01699 0.0039,-0.02539 -0.0025,-0.145662 -0.01399,-0.289637 -0.03516,-0.433593 -0.02117,-0.143957 -0.05249,-0.28762 -0.0918,-0.429688 -0.03931,-0.142067 -0.08756,-0.283833 -0.144532,-0.423828 -0.05697,-0.139995 -0.123108,-0.278278 -0.197265,-0.416016 -0.07416,-0.137738 -0.155235,-0.274858 -0.246094,-0.410156 -0.09086,-0.135298 -0.189794,-0.26967 -0.296875,-0.402344 -0.214161,-0.265347 -0.460165,-0.525546 -0.736328,-0.779297 -0.276163,-0.25375 -0.58365,-0.49955 -0.917969,-0.740234 -0.334318,-0.240684 -0.697308,-0.475023 -1.085937,-0.701172 -0.38863,-0.226149 -0.803092,-0.444152 -1.242188,-0.654297 -0.439095,-0.210144 -0.901002,-0.412797 -1.386719,-0.605468 -0.485716,-0.192672 -0.994945,-0.377053 -1.523437,-0.550782 -0.528492,-0.173729 -1.077109,-0.336916 -1.644531,-0.490234 -0.567423,-0.153318 -1.153352,-0.296297 -1.75586,-0.427734 -0.602508,-0.131438 -1.22172,-0.251287 -1.855468,-0.359375 -0.633749,-0.108088 -1.282216,-0.20384 -1.94336,-0.28711 -0.661143,-0.08327 -1.334838,-0.153955 -2.019531,-0.210937 -0.684693,-0.05698 -1.379586,-0.09968 -2.083984,-0.128907 -0.704399,-0.02923 -1.418414,-0.04492 -2.138672,-0.04492 z M 28.125,20.511719 c 0.621238,0 1.225531,0.02609 1.806641,0.07617 0.581109,0.05008 1.139667,0.124673 1.671875,0.220703 0.532207,0.09603 1.037187,0.213725 1.511718,0.351562 0.237266,0.06892 0.466299,0.142109 0.6875,0.220703 0.221202,0.07859 0.434632,0.162248 0.638672,0.25 0.204041,0.08775 0.398202,0.18095 0.583985,0.277344 0.185782,0.09639 0.362868,0.196264 0.529296,0.300781 0.166429,0.104518 0.322773,0.212095 0.46875,0.324219 0.145978,0.112124 0.281821,0.228443 0.40625,0.347656 0.12443,0.119214 0.238059,0.241403 0.339844,0.367188 0.101785,0.125785 0.191488,0.254879 0.269531,0.386719 0.07804,0.131839 0.14406,0.26692 0.197266,0.404296 0.05321,0.137377 0.09382,0.277526 0.121094,0.419922 0.04492,0.06613 0.07919,0.137585 0.103515,0.212891 0.02433,0.07531 0.03872,0.154466 0.04102,0.234375 -0.0037,0.156712 -0.02295,0.311348 -0.05664,0.462891 -0.03369,0.151542 -0.08209,0.299556 -0.144531,0.445312 -0.06244,0.145757 -0.138604,0.288381 -0.228515,0.427734 -0.08991,0.139354 -0.192491,0.275869 -0.308594,0.408204 -0.116103,0.132334 -0.245702,0.260067 -0.386719,0.384765 -0.141016,0.124699 -0.294332,0.246836 -0.458984,0.363281 -0.164652,0.116446 -0.340334,0.228362 -0.527344,0.335938 -0.18701,0.107576 -0.38566,0.210504 -0.59375,0.308594 -0.20809,0.09809 -0.426406,0.19131 -0.654297,0.279297 -0.227891,0.08799 -0.464522,0.170779 -0.710937,0.248046 -0.246415,0.07727 -0.501965,0.148913 -0.765625,0.214844 -0.263661,0.06593 -0.536778,0.125709 -0.816407,0.179688 -0.279628,0.05398 -0.565056,0.101169 -0.859375,0.142578 -0.294318,0.04141 -0.596566,0.07725 -0.904297,0.105469 -0.30773,0.02822 -0.621542,0.05003 -0.941406,0.06445 -0.319864,0.01442 -0.645842,0.02148 -0.976562,0.02148 -0.630838,0 -1.24286,-0.02645 -1.832032,-0.07813 -0.589171,-0.05168 -1.154979,-0.129481 -1.693359,-0.228516 -0.53838,-0.09903 -1.04888,-0.219255 -1.527344,-0.361328 -0.239232,-0.07104 -0.470817,-0.14753 -0.693359,-0.228515 -0.222542,-0.08099 -0.435913,-0.167418 -0.640625,-0.257813 -0.204712,-0.0904 -0.400197,-0.185891 -0.585938,-0.285156 -0.18574,-0.09926 -0.361714,-0.201 -0.527343,-0.308594 -0.165629,-0.107594 -0.32242,-0.220554 -0.466797,-0.335937 -0.144377,-0.115384 -0.276454,-0.234789 -0.398438,-0.357422 -0.121984,-0.122633 -0.23358,-0.247611 -0.332031,-0.376953 -0.09845,-0.129343 -0.184036,-0.262925 -0.257812,-0.398438 -0.07378,-0.135512 -0.135632,-0.27292 -0.183594,-0.414062 -0.04796,-0.141142 -0.08251,-0.285409 -0.103516,-0.431641 -0.04822,-0.106849 -0.0735,-0.22262 -0.07422,-0.339844 0,-0.157236 0.01636,-0.311006 0.04687,-0.46289 0.03052,-0.151885 0.07505,-0.30133 0.134766,-0.447266 0.05971,-0.145936 0.133108,-0.288343 0.220703,-0.427734 0.0876,-0.139392 0.188575,-0.275954 0.302735,-0.408203 0.114159,-0.13225 0.241452,-0.260255 0.380859,-0.384766 0.139407,-0.124511 0.291741,-0.245152 0.455078,-0.361328 0.163337,-0.116176 0.337488,-0.228694 0.523438,-0.335938 0.185949,-0.107243 0.384551,-0.210879 0.591796,-0.308593 0.207246,-0.09771 0.423167,-0.189755 0.650391,-0.277344 0.227224,-0.08759 0.465052,-0.169227 0.710938,-0.246094 0.245886,-0.07687 0.500441,-0.149296 0.763671,-0.214844 0.263231,-0.06555 0.535196,-0.124102 0.814454,-0.177734 0.279257,-0.05363 0.565407,-0.101459 0.859375,-0.142578 0.293968,-0.04112 0.594982,-0.07551 0.902343,-0.103516 0.307361,-0.02801 0.62197,-0.05015 0.941407,-0.06445 0.319437,-0.0143 0.644413,-0.02148 0.974609,-0.02148 z"
         style="fill:#f3c017;fill-opacity:1;stroke:none;stroke-width:0.975;stroke-linecap:round;stroke-linejoin:round"
         id="path37" />
    </g>
    <path
       id="line2"
       style="fill:#6f6f59;fill-opacity:1;stroke:#6f6f59;stroke-width:1.06418;stroke-opacity:1"
       d="m 29.053229,5.32078 c -13.725338,0 -24.4803134,4.749447 -24.4803134,10.826791 v 15.081436 c 0,2.30298 1.5670976,4.426065 4.2691928,6.173079 0.061633,0.0527 0.1301605,0.09675 0.2036917,0.130944 4.0571619,2.540861 10.5561939,4.253869 18.1596619,4.512376 0.009,0.0029 0.01797,0.0057 0.02702,0.0083 h 33.563265 v 0.01871 c 0.493906,7.35e-4 0.894479,-0.39984 0.893742,-0.893746 V 25.989164 C 61.689076,25.49607 61.288841,25.096763 60.795747,25.097496 H 53.55017 V 16.147571 C 53.54687,16.085761 53.53709,16.02446 53.52108,15.964665 53.306594,9.9842139 42.639788,5.32078 29.053229,5.32078 Z m 0,1.758393 c 12.263768,0 22.629076,4.081013 22.715685,9.041377 -0.0015,0.009 -0.0029,0.01799 -0.0042,0.02702 v 0.166278 c -0.163911,4.219983 -8.202572,7.971398 -18.49014,8.783647 l -6.07487,0.116626 c -0.115603,0.0079 -0.187509,-0.07835 -0.291508,-0.02726 C 15.557047,24.74107 6.3583277,20.809786 6.3583277,16.147571 c 0,-4.9529 10.3795763,-9.068398 22.6949013,-9.068398 z m -0.04573,4.391824 c -5.622213,0 -9.868613,1.988937 -9.868613,4.666181 7.6e-4,0.124747 0.02766,0.247949 0.07898,0.361655 0.357687,2.48987 4.464747,4.323234 9.835358,4.323234 5.631137,0 9.757212,-2.208902 9.81968,-4.877221 -0.0048,-0.170075 0.05516,-0.132495 -0.04044,-0.273247 -0.464339,-2.424569 -4.536087,-4.200602 -9.824965,-4.200602 z m 0.02702,1.75839 c 5.033219,0 8.120613,1.694108 8.120613,2.907791 0.0055,0.04566 0.01454,0.09083 0.02702,0.135102 -0.199107,1.209939 -3.245791,2.793474 -8.101907,2.793474 -5.024295,-10e-7 -8.1123,-1.695575 -8.1123,-2.918183 -0.01,-0.0382 -0.02248,-0.07569 -0.03742,-0.112238 0.165682,-1.20435 3.210778,-2.805946 8.103987,-2.805946 z m 22.730235,7.025256 v 4.842853 h -8.80859 c 3.931922,-1.184373 7.015423,-2.856994 8.80859,-4.842853 z m -45.4064304,0.02286 c 3.59984,3.969461 12.2912424,6.703092 22.6949014,6.703092 0.62469,0 1.265999,-0.0085 1.962083,-0.03533 0.381399,-0.013 0.75085,-0.04206 1.126534,-0.06235 h 20.202807 c 0.09935,0.03928 0.204953,0.0604 0.311771,0.06235 0.106118,-0.0022 0.210992,-0.02332 0.309694,-0.06235 H 59.9207 V 40.268311 H 55.691 v -4.836619 c -0.04677,-1.141158 -1.736561,-1.141158 -1.783334,0 v 4.836619 h -5.034073 v -3.051206 c 0,-1.190275 -1.785414,-1.190275 -1.785414,0 v 3.051206 h -4.248408 v -4.836619 c -0.04677,-1.141158 -1.736561,-1.141158 -1.783334,0 v 4.836619 h -5.034074 v -3.051206 c -5.63e-4,-1.189711 -1.785976,-1.189711 -1.785413,0 v 3.051206 h -4.24633 v -4.836619 c -9.25e-4,-1.189348 -1.786337,-1.189348 -1.785412,0 v 4.836619 h -0.758645 c -1.467557,-0.0428 -2.899925,-0.144498 -4.283743,-0.299301 v -3.502239 c -9.25e-4,-1.189348 -1.786337,-1.189348 -1.785412,0 v 3.267367 c -1.49202,-0.222855 -2.912929,-0.507084 -4.246329,-0.84594 v -5.331296 c 5.64e-4,-1.190838 -1.784849,-1.190838 -1.785413,0 v 4.828304 c -1.944467,-0.602849 -3.647715,-1.325135 -5.034072,-2.136675 v -3.458587 c 0.05074,-1.238587 -1.8340714,-1.238587 -1.7833359,0 v 2.221892 C 7.1413764,33.84925 6.3583277,32.563863 6.3583277,31.229007 Z" />
  </g>
  <g
     id="g3"
     transform="translate(-0.00434065)">
    <circle
       cx="55.825939"
       cy="52.661205"
       style="fill:#72be44;stroke:#6f6f59;stroke-width:1.4;stroke-dasharray:none;stroke-opacity:1"
       id="circle3-5"
       r="3.3857877" />
    <circle
       cx="8.1827421"
       cy="52.661205"
       style="fill:#2896d3;stroke:#6f6f59;stroke-width:1.4;stroke-dasharray:none;stroke-opacity:1"
       id="circle3-5-1"
       r="3.3857877" />
    <g
       id="g1"
       transform="translate(0.00522915,-0.76361128)">
      <path
         id="rect1"
         style="fill:none;stroke:#6f6f59;stroke-width:1.4;stroke-linecap:round;stroke-linejoin:round;stroke-dasharray:none;stroke-dashoffset:0;stroke-opacity:1"
         d="m 24.02937,53.424817 h 3.35757 z" />
      <path
         id="rect1-8"
         style="fill:none;stroke:#6f6f59;stroke-width:1.4;stroke-linecap:round;stroke-linejoin:round;stroke-dasharray:none;stroke-dashoffset:0;stroke-opacity:1"
         d="m 30.320326,53.424817 h 3.35757 z" />
      <path
         id="rect1-0"
         style="fill:none;stroke:#6f6f59;stroke-width:1.4;stroke-linecap:round;stroke-linejoin:round;stroke-dasharray:none;stroke-dashoffset:0;stroke-opacity:1"
         d="m 36.611282,53.424817 h 3.357571 z" />
      <polygon
         points="6.25,4.8 11.25,22.81 24.18,9.88 "
         style="fill:#6f6f59;fill-opacity:1;stroke:#6f6f59;stroke-width:4.13372;stroke-linecap:round;stroke-linejoin:round;stroke-dasharray:none;stroke-opacity:1"
         id="polygon4"
         transform="matrix(0.16250524,-0.16250524,0.16250524,0.16250524,15.086055,53.647449)" />
      <polygon
         points="24.18,9.88 6.25,4.8 11.25,22.81 "
         style="fill:#6f6f59;fill-opacity:1;stroke:#6f6f59;stroke-width:4.13372;stroke-linecap:round;stroke-linejoin:round;stroke-dasharray:none;stroke-opacity:1"
         id="polygon4-7"
         transform="matrix(-0.16250524,-0.16250524,-0.16250524,0.16250524,48.912168,53.647449)" />
    </g>
  </g>
</svg>
