<?xml version="1.0" encoding="UTF-8" standalone="no"?>
<svg
   id="Layer_1"
   data-name="Layer 1"
   viewBox="0 0 64 64"
   version="1.1"
   sodipodi:docname="lqVcrRewindTime.svg"
   inkscape:version="1.2.2 (b0a8486541, 2022-12-01)"
   xmlns:inkscape="http://www.inkscape.org/namespaces/inkscape"
   xmlns:sodipodi="http://sodipodi.sourceforge.net/DTD/sodipodi-0.dtd"
   xmlns="http://www.w3.org/2000/svg"
   xmlns:svg="http://www.w3.org/2000/svg">
  <defs
     id="defs15" />
  <sodipodi:namedview
     id="namedview13"
     pagecolor="#ffffff"
     bordercolor="#000000"
     borderopacity="0.25"
     inkscape:showpageshadow="2"
     inkscape:pageopacity="0.0"
     inkscape:pagecheckerboard="0"
     inkscape:deskcolor="#d1d1d1"
     showgrid="false"
     inkscape:zoom="10.429825"
     inkscape:cx="43.337256"
     inkscape:cy="37.82422"
     inkscape:window-width="1920"
     inkscape:window-height="1128"
     inkscape:window-x="0"
     inkscape:window-y="0"
     inkscape:window-maximized="1"
     inkscape:current-layer="g1887" />
  <g
     id="g1887"
     transform="translate(-0.24967145,-2.1490175)">
    <path
       d="m 37.745973,30.318458 v -9.124323 a 2.3265588,2.3265588 0 0 0 -2.326559,-2.336133 v 0 a 2.3361331,2.3361331 0 0 0 -2.326559,2.336133 v 9.143472 a 3.3988822,3.3988822 0 0 0 -1.101046,2.508471 3.4371795,3.4371795 0 1 0 5.744589,-2.52762 z"
       style="fill:#ffc418;stroke-width:0.957432"
       id="path8" />
    <path
       d="m 35.426834,38.147582 a 4.9209227,4.9209227 0 0 1 -4.920922,-4.920922 4.9834768,4.9834768 0 0 1 1.198953,-3.211112 v -9.476946 a 3.721969,3.721969 0 0 1 7.433513,0 v 9.466521 a 4.910497,4.910497 0 0 1 -3.711544,8.142459 z m 0,-18.974744 a 1.3657646,1.3657646 0 0 0 -1.365764,1.365764 v 10.425684 l -0.375325,0.344048 a 2.5230155,2.5230155 0 0 0 -0.823629,1.876622 2.5647182,2.5647182 0 1 0 4.305808,-1.845345 L 36.782173,30.995563 V 20.569879 a 1.3657646,1.3657646 0 0 0 -1.355339,-1.397041 z"
       style="fill:#6f6f59;stroke:none;stroke-width:0.824314;stroke-dasharray:none"
       id="path10" />
    <path
       d="M 21.925736,58.272071 H 3.9127353 v -6.88497 H 21.925736 Z"
       style="fill:#6f6f59;fill-opacity:1;stroke:#6f6f59;stroke-width:1.32147;stroke-linecap:round;stroke-linejoin:round;stroke-dasharray:none;stroke-opacity:1"
       id="path133" />
    <path
       d="M 56.958486,18.054134 A 25.944568,25.944568 0 0 0 10.064027,26.669951 H 3.1269774 L 13.948776,40.849282 24.715078,26.656077 h -7.10354 a 18.716162,18.716162 0 1 1 12.042719,23.58597 v 7.505889 A 25.958441,25.958441 0 0 0 56.958486,18.054134 Z"
       style="fill:#a7d28c;stroke:#6f6f59;stroke-width:1.68392;stroke-linecap:round;stroke-linejoin:round;stroke-dasharray:none;stroke-opacity:1"
       id="path139" />
  </g>
</svg>
