<?xml version="1.0" encoding="UTF-8" standalone="no"?>
<!-- Created with Inkscape (http://www.inkscape.org/) -->

<svg
   width="7.3168445cm"
   height="1.9572772cm"
   viewBox="0 0 73.168443 19.572772"
   version="1.1"
   id="svg7011"
   inkscape:version="1.1.2 (0a00cf5339, 2022-02-04)"
   sodipodi:docname="ParaviewLidar.svg"
   inkscape:export-filename="/home/ParaviewLidar.png"
   inkscape:export-xdpi="293.58936"
   inkscape:export-ydpi="293.58936"
   xmlns:inkscape="http://www.inkscape.org/namespaces/inkscape"
   xmlns:sodipodi="http://sodipodi.sourceforge.net/DTD/sodipodi-0.dtd"
   xmlns="http://www.w3.org/2000/svg"
   xmlns:svg="http://www.w3.org/2000/svg"
   xmlns:rdf="http://www.w3.org/1999/02/22-rdf-syntax-ns#"
   xmlns:cc="http://creativecommons.org/ns#"
   xmlns:dc="http://purl.org/dc/elements/1.1/">
  <defs
     id="defs7005" />
  <sodipodi:namedview
     id="base"
     pagecolor="#ffffff"
     bordercolor="#666666"
     borderopacity="1.0"
     inkscape:pageopacity="0.0"
     inkscape:pageshadow="2"
     inkscape:zoom="3.959798"
     inkscape:cx="83.590123"
     inkscape:cy="63.765879"
     inkscape:document-units="mm"
     inkscape:current-layer="g6517"
     showgrid="false"
     fit-margin-top="0.2"
     fit-margin-left="0.2"
     fit-margin-right="0.2"
     fit-margin-bottom="0.2"
     inkscape:window-width="1846"
     inkscape:window-height="1016"
     inkscape:window-x="74"
     inkscape:window-y="104"
     inkscape:window-maximized="1"
     units="cm"
     inkscape:pagecheckerboard="0" />
  <metadata
     id="metadata7008">
    <rdf:RDF>
      <cc:Work
         rdf:about="">
        <dc:format>image/svg+xml</dc:format>
        <dc:type
           rdf:resource="http://purl.org/dc/dcmitype/StillImage" />
      </cc:Work>
    </rdf:RDF>
  </metadata>
  <g
     inkscape:label="Layer 1"
     inkscape:groupmode="layer"
     id="layer1"
     transform="translate(-49.594342,-61.183854)">
    <g
       id="g6948"
       transform="matrix(0.07101506,0,0,0.07101506,175.4764,-82.623344)">
      <g
         id="g6962"
         transform="translate(46.119404,23.059702)">
        <path
           style="fill:#f32735;fill-opacity:1;stroke-width:0.9375"
           d="m -1790.5671,2248.5395 c 0,-0.4818 3.7671,-15.1419 8.3713,-32.5781 4.6042,-17.4361 14.5449,-55.1161 22.0904,-83.7333 7.5455,-28.6172 16.4347,-62.3045 19.7537,-74.8608 3.319,-12.5562 6.0346,-22.9976 6.0346,-23.2031 0,-0.2055 15.5347,-0.3736 34.5215,-0.3736 h 34.5214 l -11.5747,43.8281 c -6.3661,24.1055 -18.9704,71.8828 -28.0095,106.1719 -9.0392,34.2891 -16.6514,63.082 -16.9162,63.9844 -0.447,1.5236 -2.9162,1.6406 -34.6369,1.6406 -20.5485,0 -34.1556,-0.349 -34.1556,-0.8761 z"
           id="path6826-3"
           inkscape:connector-curvature="0"
           sodipodi:nodetypes="scscsscsccss" />
        <path
           sodipodi:nodetypes="scscccccccs"
           inkscape:connector-curvature="0"
           id="path6921"
           d="m -1618.0671,2248.8893 c 0,-0.3022 4.4249,-17.2879 9.833,-37.746 5.4082,-20.458 18.1879,-68.8371 28.3994,-107.5089 l 18.5664,-70.3125 34.4902,-0.2461 34.4901,-0.246 -0.5922,2.5898 c -0.3258,1.4244 -13.1322,50.0507 -28.4589,108.0585 l -27.8665,105.4688 -34.4308,0.2459 c -18.9369,0.1352 -34.4307,0 -34.4307,-0.3035 z"
           style="fill:#0068c7;fill-opacity:1;stroke-width:0.9375" />
        <path
           style="fill:#3eae2b;fill-opacity:1;stroke-width:0.9375"
           d="m -1704.2533,2248.2437 c 0.035,-0.6445 12.7968,-49.1647 28.3593,-107.8225 l 28.2956,-106.6507 34.4424,-0.2243 c 30.2438,-0.197 34.392,-0.053 34.0292,1.1819 -0.2272,0.7734 -12.4737,47.1797 -27.2144,103.125 -14.7406,55.9453 -27.4288,103.9336 -28.196,106.6406 l -1.3948,4.9219 h -34.1925 c -26.7631,0 -34.1787,-0.2546 -34.1288,-1.1719 z"
           id="path6923"
           inkscape:connector-curvature="0"
           sodipodi:nodetypes="csccccccsc" />
      </g>
      <g
         id="Layer_3"
         transform="matrix(0.53036591,0,0,0.53036591,-1578.4449,2303.9715)">
        <g
           id="g5950">
          <g
             id="g6517"
             transform="matrix(0.72169009,0,0,0.72169009,136.27781,-218.18809)">
            <g
               id="g6694">
              <path
                 d="m 301.1,22.31 h 23.1 v 170.52 h 92.4 v 21.58 H 301.1 Z"
                 style="fill:#5f5f5f;fill-opacity:1"
                 id="path5932" />
              <path
                 d="m 458.43,3.16 c 7.9,0 14.29,6.69 14.29,14.59 0,7.9 -6.38,14.28 -14.29,14.28 -7.91,0 -14.59,-6.38 -14.59,-14.28 0,-7.9 6.38,-14.59 14.59,-14.59 z M 447.18,67.9 h 22.19 v 146.51 h -22.19 z"
                 style="fill:#5f5f5f;fill-opacity:1"
                 id="path5934" />
              <path
                 d="m 620.48,208.33 c -16.72,6.38 -38.3,8.51 -51.67,8.51 -47.72,0 -69.91,-25.84 -69.91,-76.29 0,-44.38 20.67,-75.08 67.78,-75.08 12.16,0 23.71,1.82 31.61,5.47 V 7.11 h 22.19 z M 568.2,195.87 c 9.73,0 21.28,-0.91 30.09,-4.26 V 92.52 c -4.86,-2.43 -14.89,-6.08 -30.4,-6.08 -37.69,0 -46.81,21.28 -46.81,55.02 0,39.51 13.68,54.41 47.11,54.41 z"
                 style="fill:#5f5f5f;fill-opacity:1"
                 id="path5936" />
              <path
                 d="m 761.25,208.33 c -13.68,4.86 -35.26,8.51 -55.62,8.51 -35.26,0 -58.66,-11.85 -58.66,-44.98 0,-33.13 23.4,-45.29 63.22,-45.29 h 28.88 v -14.29 c 0,-20.06 -13.98,-26.44 -37.08,-26.44 -17.02,0 -31,3.04 -40.12,6.38 l -3.34,-20.36 c 11.86,-3.34 26.75,-6.38 44.38,-6.38 33.44,0 58.36,12.16 58.36,48.63 v 94.23 z M 739.06,144.2 h -28.57 c -27.05,0 -41.34,6.69 -41.34,27.36 0,20.67 14.28,26.14 35.87,26.14 10.64,0 24.62,-1.22 34.04,-4.26 z"
                 style="fill:#5f5f5f;fill-opacity:1"
                 id="path5938" />
              <path
                 d="m 792.91,73.98 c 9.73,-4.56 27.96,-8.21 45.9,-8.21 11.55,0 21.28,1.22 29.18,3.65 l -4.26,20.67 c -4.56,-1.82 -13.68,-3.34 -24.32,-3.34 -12.46,0 -19.15,1.52 -24.32,3.95 V 214.41 H 792.9 V 73.98 Z"
                 style="fill:#5f5f5f;fill-opacity:1"
                 id="path5940" />
            </g>
          </g>
        </g>
      </g>
    </g>
    <g
       id="g5228"
       transform="matrix(0.08951743,0,0,0.08951743,21.688175,36.221639)">
      <g
         id="g5220"
         transform="matrix(0.90843816,0,0,0.90843816,385.1236,155.43256)">
        <g
           id="g5647"
           transform="translate(51.469282,152.58226)">
          <path
             d="m 235.6,10.38 c 24.65,0 33.88,11.68 33.88,28.83 0,17.15 -9.52,28.83 -33.88,28.83 h -21.48 v 33.45 H 203.16 V 10.38 Z m -21.48,10.24 v 37.19 h 21.48 c 17.3,0 22.92,-6.92 22.92,-18.6 0,-11.68 -5.77,-18.6 -22.92,-18.6 h -21.48 z"
             style="fill:#003765"
             id="path5204" />
          <path
             d="m 329.6,98.61 c -6.49,2.31 -16.72,4.04 -26.38,4.04 -16.72,0 -27.82,-5.62 -27.82,-21.34 0,-15.72 11.1,-21.48 29.99,-21.48 h 13.7 v -6.78 c 0,-9.51 -6.63,-12.54 -17.59,-12.54 -8.07,0 -14.71,1.44 -19.03,3.03 l -1.59,-9.66 c 5.62,-1.59 12.69,-3.03 21.05,-3.03 15.86,0 27.68,5.77 27.68,23.07 V 98.61 Z M 319.08,68.19 h -13.55 c -12.83,0 -19.61,3.17 -19.61,12.98 0,9.81 6.78,12.4 17.01,12.4 5.05,0 11.68,-0.58 16.15,-2.02 z"
             style="fill:#003765"
             id="path5206" />
          <path
             d="M 345.14,34.89 C 349.75,32.73 358.4,31 366.91,31 c 5.48,0 10.09,0.58 13.84,1.73 l -2.02,9.8 c -2.16,-0.86 -6.49,-1.59 -11.53,-1.59 -5.91,0 -9.08,0.72 -11.53,1.87 v 58.68 h -10.52 v -66.6 z"
             style="fill:#003765"
             id="path5208" />
          <path
             d="m 439.86,98.61 c -6.49,2.31 -16.72,4.04 -26.38,4.04 -16.72,0 -27.82,-5.62 -27.82,-21.34 0,-15.72 11.1,-21.48 29.99,-21.48 h 13.7 v -6.78 c 0,-9.51 -6.63,-12.54 -17.59,-12.54 -8.07,0 -14.7,1.44 -19.03,3.03 l -1.59,-9.66 c 5.62,-1.59 12.69,-3.03 21.05,-3.03 15.86,0 27.68,5.77 27.68,23.07 V 98.61 Z M 429.34,68.19 h -13.55 c -12.83,0 -19.61,3.17 -19.61,12.98 0,9.81 6.78,12.4 17.01,12.4 5.05,0 11.68,-0.58 16.15,-2.02 z"
             style="fill:#003765"
             id="path5210" />
          <path
             d="M 487.2,101.49 H 475.81 L 441.78,10.38 h 11.25 l 28.4,77.13 28.55,-77.13 h 11.24 z"
             style="fill:#003765"
             id="path5212" />
          <path
             d="m 535.83,1.29 c 3.75,0 6.78,3.17 6.78,6.92 0,3.75 -3.03,6.78 -6.78,6.78 -3.75,0 -6.92,-3.03 -6.92,-6.78 0,-3.75 3.03,-6.92 6.92,-6.92 z M 530.5,32 h 10.52 v 69.49 H 530.5 Z"
             style="fill:#003765"
             id="path5214" />
          <path
             d="m 612.27,70.93 h -47.43 v 0.58 c 0,14.71 8.51,21.19 22.92,21.19 8.07,0 16.58,-2.02 21.77,-4.76 l 1.59,9.95 c -6.78,3.03 -14.99,4.76 -23.5,4.76 -22.2,0 -33.45,-11.1 -33.45,-35.75 0,-20.04 7.35,-36.04 30.13,-36.04 18.31,0 29.12,10.24 29.12,30.42 0,2.88 -0.29,6.63 -1.15,9.66 z m -47.43,-8.94 h 38.49 v -0.87 c 0,-14.85 -7.5,-20.9 -19.32,-20.9 -11.82,0 -19.17,5.91 -19.17,20.9 z"
             style="fill:#003765"
             id="path5216" />
          <path
             d="M 646.07,87.22 664.96,32 h 10.67 L 694.52,87.22 713.41,32 h 10.81 L 700,101.49 h -10.81 l -18.89,-53.2 -18.89,53.2 H 640.6 L 616.38,32 h 10.81 l 18.89,55.22 z"
             style="fill:#003765"
             id="path5218" />
        </g>
      </g>
    </g>
  </g>
</svg>
